STARTFONT 2.1
FONT -StarBrilliant-Pockedev-Regular-R-Normal--8-60-96-96-C-0-ISO10646-1
SIZE 8 75 75
FONTBOUNDINGBOX 11 11 -1 -2
COMMENT "Generated by fontforge, http://fontforge.sourceforge.net"
COMMENT "Copyright (c) StarBrilliant. Licensed under LGPL version 3."
STARTPROPERTIES 27
FOUNDRY "FontForge"
FAMILY_NAME "Pockedev"
WEIGHT_NAME "Regular"
SLANT "R"
SETWIDTH_NAME "Normal"
ADD_STYLE_NAME ""
PIXEL_SIZE 8
POINT_SIZE 60
RESOLUTION_X 96
RESOLUTION_Y 96
SPACING "C"
AVERAGE_WIDTH 0
CHARSET_REGISTRY "ISO10646"
CHARSET_ENCODING "1"
DEFAULT_CHAR "uniFFFD"
FONTNAME_REGISTRY ""
CHARSET_COLLECTIONS "ISO10646-1"
FONT_NAME "Pockedev"
FACE_NAME "Pockedev"
FONT_VERSION "001.000"
FONT_ASCENT 7
FONT_DESCENT 1
UNDERLINE_POSITION 63
UNDERLINE_THICKNESS 125
RAW_ASCENT 875
RAW_DESCENT 125
FIGURE_WIDTH -1
ENDPROPERTIES
CHARS 843
STARTCHAR uni0000
ENCODING 0
SWIDTH 1000 0
DWIDTH 6 0
BBX 5 7 0 0
BITMAP
F8
A8
98
A8
88
A8
F8
ENDCHAR
STARTCHAR uni000D
ENCODING 13
SWIDTH 1000 0
DWIDTH 8 0
BBX 7 7 0 0
BITMAP
EE
84
E4
00
C8
A8
8E
ENDCHAR
STARTCHAR space
ENCODING 32
SWIDTH 750 0
DWIDTH 6 0
BBX 1 1 0 0
BITMAP
00
ENDCHAR
STARTCHAR exclam
ENCODING 33
SWIDTH 750 0
DWIDTH 6 0
BBX 1 7 2 0
BITMAP
80
80
80
80
80
00
80
ENDCHAR
STARTCHAR quotedbl
ENCODING 34
SWIDTH 750 0
DWIDTH 6 0
BBX 3 2 1 5
BITMAP
A0
A0
ENDCHAR
STARTCHAR numbersign
ENCODING 35
SWIDTH 750 0
DWIDTH 6 0
BBX 5 7 0 0
BITMAP
28
28
F8
50
F8
A0
A0
ENDCHAR
STARTCHAR dollar
ENCODING 36
SWIDTH 750 0
DWIDTH 6 0
BBX 5 7 0 0
BITMAP
20
78
A0
70
28
F0
20
ENDCHAR
STARTCHAR percent
ENCODING 37
SWIDTH 750 0
DWIDTH 6 0
BBX 5 7 0 0
BITMAP
40
A8
50
20
50
A8
10
ENDCHAR
STARTCHAR ampersand
ENCODING 38
SWIDTH 750 0
DWIDTH 6 0
BBX 5 7 0 0
BITMAP
60
90
90
60
A8
90
68
ENDCHAR
STARTCHAR quotesingle
ENCODING 39
SWIDTH 750 0
DWIDTH 6 0
BBX 1 2 2 5
BITMAP
80
80
ENDCHAR
STARTCHAR parenleft
ENCODING 40
SWIDTH 750 0
DWIDTH 6 0
BBX 3 7 1 0
BITMAP
20
40
80
80
80
40
20
ENDCHAR
STARTCHAR parenright
ENCODING 41
SWIDTH 750 0
DWIDTH 6 0
BBX 3 7 1 0
BITMAP
80
40
20
20
20
40
80
ENDCHAR
STARTCHAR asterisk
ENCODING 42
SWIDTH 750 0
DWIDTH 6 0
BBX 5 7 0 0
BITMAP
20
A8
70
20
70
A8
20
ENDCHAR
STARTCHAR plus
ENCODING 43
SWIDTH 750 0
DWIDTH 6 0
BBX 5 5 0 1
BITMAP
20
20
F8
20
20
ENDCHAR
STARTCHAR comma
ENCODING 44
SWIDTH 750 0
DWIDTH 6 0
BBX 2 3 1 -1
BITMAP
40
40
80
ENDCHAR
STARTCHAR hyphen
ENCODING 45
SWIDTH 750 0
DWIDTH 6 0
BBX 5 1 0 3
BITMAP
F8
ENDCHAR
STARTCHAR period
ENCODING 46
SWIDTH 750 0
DWIDTH 6 0
BBX 1 1 2 1
BITMAP
80
ENDCHAR
STARTCHAR slash
ENCODING 47
SWIDTH 750 0
DWIDTH 6 0
BBX 3 7 1 0
BITMAP
20
20
40
40
40
80
80
ENDCHAR
STARTCHAR zero
ENCODING 48
SWIDTH 750 0
DWIDTH 6 0
BBX 5 7 0 0
BITMAP
70
88
98
A8
C8
88
70
ENDCHAR
STARTCHAR one
ENCODING 49
SWIDTH 750 0
DWIDTH 6 0
BBX 5 7 0 0
BITMAP
20
60
A0
20
20
20
F8
ENDCHAR
STARTCHAR two
ENCODING 50
SWIDTH 750 0
DWIDTH 6 0
BBX 5 7 0 0
BITMAP
70
88
08
10
20
40
F8
ENDCHAR
STARTCHAR three
ENCODING 51
SWIDTH 750 0
DWIDTH 6 0
BBX 5 7 0 0
BITMAP
70
88
08
30
08
88
70
ENDCHAR
STARTCHAR four
ENCODING 52
SWIDTH 750 0
DWIDTH 6 0
BBX 5 7 0 0
BITMAP
10
30
50
90
F8
10
10
ENDCHAR
STARTCHAR five
ENCODING 53
SWIDTH 750 0
DWIDTH 6 0
BBX 5 7 0 0
BITMAP
F8
80
F0
08
08
88
70
ENDCHAR
STARTCHAR six
ENCODING 54
SWIDTH 750 0
DWIDTH 6 0
BBX 5 7 0 0
BITMAP
70
88
80
F0
88
88
70
ENDCHAR
STARTCHAR seven
ENCODING 55
SWIDTH 750 0
DWIDTH 6 0
BBX 5 7 0 0
BITMAP
F8
08
10
10
20
20
20
ENDCHAR
STARTCHAR eight
ENCODING 56
SWIDTH 750 0
DWIDTH 6 0
BBX 5 7 0 0
BITMAP
70
88
88
70
88
88
70
ENDCHAR
STARTCHAR nine
ENCODING 57
SWIDTH 750 0
DWIDTH 6 0
BBX 5 7 0 0
BITMAP
70
88
88
78
08
88
70
ENDCHAR
STARTCHAR colon
ENCODING 58
SWIDTH 750 0
DWIDTH 6 0
BBX 1 3 2 1
BITMAP
80
00
80
ENDCHAR
STARTCHAR semicolon
ENCODING 59
SWIDTH 750 0
DWIDTH 6 0
BBX 2 5 1 -1
BITMAP
40
00
40
40
80
ENDCHAR
STARTCHAR less
ENCODING 60
SWIDTH 750 0
DWIDTH 6 0
BBX 3 5 1 1
BITMAP
20
40
80
40
20
ENDCHAR
STARTCHAR equal
ENCODING 61
SWIDTH 750 0
DWIDTH 6 0
BBX 5 3 0 2
BITMAP
F8
00
F8
ENDCHAR
STARTCHAR greater
ENCODING 62
SWIDTH 750 0
DWIDTH 6 0
BBX 3 5 1 1
BITMAP
80
40
20
40
80
ENDCHAR
STARTCHAR question
ENCODING 63
SWIDTH 750 0
DWIDTH 6 0
BBX 5 7 0 0
BITMAP
70
88
08
10
20
00
20
ENDCHAR
STARTCHAR at
ENCODING 64
SWIDTH 750 0
DWIDTH 6 0
BBX 5 7 0 0
BITMAP
70
88
B8
A8
B8
80
78
ENDCHAR
STARTCHAR A
ENCODING 65
SWIDTH 750 0
DWIDTH 6 0
BBX 5 7 0 0
BITMAP
20
50
50
88
F8
88
88
ENDCHAR
STARTCHAR B
ENCODING 66
SWIDTH 750 0
DWIDTH 6 0
BBX 5 7 0 0
BITMAP
F0
88
88
F0
88
88
F0
ENDCHAR
STARTCHAR C
ENCODING 67
SWIDTH 750 0
DWIDTH 6 0
BBX 5 7 0 0
BITMAP
70
88
80
80
80
88
70
ENDCHAR
STARTCHAR D
ENCODING 68
SWIDTH 750 0
DWIDTH 6 0
BBX 5 7 0 0
BITMAP
E0
90
88
88
88
90
E0
ENDCHAR
STARTCHAR E
ENCODING 69
SWIDTH 750 0
DWIDTH 6 0
BBX 5 7 0 0
BITMAP
F8
80
80
F0
80
80
F8
ENDCHAR
STARTCHAR F
ENCODING 70
SWIDTH 750 0
DWIDTH 6 0
BBX 5 7 0 0
BITMAP
F8
80
80
F0
80
80
80
ENDCHAR
STARTCHAR G
ENCODING 71
SWIDTH 750 0
DWIDTH 6 0
BBX 5 7 0 0
BITMAP
78
80
80
B8
88
88
78
ENDCHAR
STARTCHAR H
ENCODING 72
SWIDTH 750 0
DWIDTH 6 0
BBX 5 7 0 0
BITMAP
88
88
88
F8
88
88
88
ENDCHAR
STARTCHAR I
ENCODING 73
SWIDTH 750 0
DWIDTH 6 0
BBX 3 7 1 0
BITMAP
E0
40
40
40
40
40
E0
ENDCHAR
STARTCHAR J
ENCODING 74
SWIDTH 750 0
DWIDTH 6 0
BBX 5 7 0 0
BITMAP
08
08
08
08
08
88
70
ENDCHAR
STARTCHAR K
ENCODING 75
SWIDTH 750 0
DWIDTH 6 0
BBX 5 7 0 0
BITMAP
88
90
A0
C0
A0
90
88
ENDCHAR
STARTCHAR L
ENCODING 76
SWIDTH 750 0
DWIDTH 6 0
BBX 5 7 0 0
BITMAP
80
80
80
80
80
80
F8
ENDCHAR
STARTCHAR M
ENCODING 77
SWIDTH 750 0
DWIDTH 6 0
BBX 5 7 0 0
BITMAP
88
D8
A8
A8
88
88
88
ENDCHAR
STARTCHAR N
ENCODING 78
SWIDTH 750 0
DWIDTH 6 0
BBX 5 7 0 0
BITMAP
88
88
C8
A8
98
88
88
ENDCHAR
STARTCHAR O
ENCODING 79
SWIDTH 750 0
DWIDTH 6 0
BBX 5 7 0 0
BITMAP
70
88
88
88
88
88
70
ENDCHAR
STARTCHAR P
ENCODING 80
SWIDTH 750 0
DWIDTH 6 0
BBX 5 7 0 0
BITMAP
F0
88
88
F0
80
80
80
ENDCHAR
STARTCHAR Q
ENCODING 81
SWIDTH 750 0
DWIDTH 6 0
BBX 5 8 0 -1
BITMAP
70
88
88
88
88
A8
70
18
ENDCHAR
STARTCHAR R
ENCODING 82
SWIDTH 750 0
DWIDTH 6 0
BBX 5 7 0 0
BITMAP
F0
88
88
F0
A0
90
88
ENDCHAR
STARTCHAR S
ENCODING 83
SWIDTH 750 0
DWIDTH 6 0
BBX 5 7 0 0
BITMAP
78
80
80
70
08
08
F0
ENDCHAR
STARTCHAR T
ENCODING 84
SWIDTH 750 0
DWIDTH 6 0
BBX 5 7 0 0
BITMAP
F8
20
20
20
20
20
20
ENDCHAR
STARTCHAR U
ENCODING 85
SWIDTH 750 0
DWIDTH 6 0
BBX 5 7 0 0
BITMAP
88
88
88
88
88
88
70
ENDCHAR
STARTCHAR V
ENCODING 86
SWIDTH 750 0
DWIDTH 6 0
BBX 5 7 0 0
BITMAP
88
88
50
50
50
20
20
ENDCHAR
STARTCHAR W
ENCODING 87
SWIDTH 750 0
DWIDTH 6 0
BBX 5 7 0 0
BITMAP
88
88
88
A8
A8
50
50
ENDCHAR
STARTCHAR X
ENCODING 88
SWIDTH 750 0
DWIDTH 6 0
BBX 5 7 0 0
BITMAP
88
50
50
20
50
50
88
ENDCHAR
STARTCHAR Y
ENCODING 89
SWIDTH 750 0
DWIDTH 6 0
BBX 5 7 0 0
BITMAP
88
88
50
50
20
20
20
ENDCHAR
STARTCHAR Z
ENCODING 90
SWIDTH 750 0
DWIDTH 6 0
BBX 5 7 0 0
BITMAP
F8
08
10
20
40
80
F8
ENDCHAR
STARTCHAR bracketleft
ENCODING 91
SWIDTH 750 0
DWIDTH 6 0
BBX 3 7 1 0
BITMAP
E0
80
80
80
80
80
E0
ENDCHAR
STARTCHAR backslash
ENCODING 92
SWIDTH 750 0
DWIDTH 6 0
BBX 3 7 1 0
BITMAP
80
80
40
40
40
20
20
ENDCHAR
STARTCHAR bracketright
ENCODING 93
SWIDTH 750 0
DWIDTH 6 0
BBX 3 7 1 0
BITMAP
E0
20
20
20
20
20
E0
ENDCHAR
STARTCHAR asciicircum
ENCODING 94
SWIDTH 750 0
DWIDTH 6 0
BBX 3 2 1 5
BITMAP
40
A0
ENDCHAR
STARTCHAR underscore
ENCODING 95
SWIDTH 750 0
DWIDTH 6 0
BBX 5 1 0 -1
BITMAP
F8
ENDCHAR
STARTCHAR grave
ENCODING 96
SWIDTH 750 0
DWIDTH 6 0
BBX 2 2 1 6
BITMAP
80
40
ENDCHAR
STARTCHAR a
ENCODING 97
SWIDTH 750 0
DWIDTH 6 0
BBX 5 5 0 0
BITMAP
70
08
78
88
78
ENDCHAR
STARTCHAR b
ENCODING 98
SWIDTH 750 0
DWIDTH 6 0
BBX 5 7 0 0
BITMAP
80
80
B0
C8
88
88
F0
ENDCHAR
STARTCHAR c
ENCODING 99
SWIDTH 750 0
DWIDTH 6 0
BBX 5 5 0 0
BITMAP
70
88
80
88
70
ENDCHAR
STARTCHAR d
ENCODING 100
SWIDTH 750 0
DWIDTH 6 0
BBX 5 7 0 0
BITMAP
08
08
68
98
88
98
68
ENDCHAR
STARTCHAR e
ENCODING 101
SWIDTH 750 0
DWIDTH 6 0
BBX 5 5 0 0
BITMAP
70
88
F8
80
70
ENDCHAR
STARTCHAR f
ENCODING 102
SWIDTH 750 0
DWIDTH 6 0
BBX 4 7 1 0
BITMAP
30
40
40
F0
40
40
40
ENDCHAR
STARTCHAR g
ENCODING 103
SWIDTH 750 0
DWIDTH 6 0
BBX 5 6 0 -1
BITMAP
70
88
88
78
08
70
ENDCHAR
STARTCHAR h
ENCODING 104
SWIDTH 750 0
DWIDTH 6 0
BBX 5 7 0 0
BITMAP
80
80
B0
C8
88
88
88
ENDCHAR
STARTCHAR i
ENCODING 105
SWIDTH 750 0
DWIDTH 6 0
BBX 3 7 1 0
BITMAP
40
00
C0
40
40
40
E0
ENDCHAR
STARTCHAR j
ENCODING 106
SWIDTH 750 0
DWIDTH 6 0
BBX 2 8 1 -1
BITMAP
40
00
C0
40
40
40
40
80
ENDCHAR
STARTCHAR k
ENCODING 107
SWIDTH 750 0
DWIDTH 6 0
BBX 4 7 0 0
BITMAP
80
80
90
A0
C0
A0
90
ENDCHAR
STARTCHAR l
ENCODING 108
SWIDTH 750 0
DWIDTH 6 0
BBX 4 7 1 0
BITMAP
C0
40
40
40
40
50
60
ENDCHAR
STARTCHAR m
ENCODING 109
SWIDTH 750 0
DWIDTH 6 0
BBX 5 5 0 0
BITMAP
D0
A8
A8
A8
A8
ENDCHAR
STARTCHAR n
ENCODING 110
SWIDTH 750 0
DWIDTH 6 0
BBX 5 5 0 0
BITMAP
B0
C8
88
88
88
ENDCHAR
STARTCHAR o
ENCODING 111
SWIDTH 750 0
DWIDTH 6 0
BBX 5 5 0 0
BITMAP
70
88
88
88
70
ENDCHAR
STARTCHAR p
ENCODING 112
SWIDTH 750 0
DWIDTH 6 0
BBX 5 6 0 -1
BITMAP
F0
88
88
F0
80
80
ENDCHAR
STARTCHAR q
ENCODING 113
SWIDTH 750 0
DWIDTH 6 0
BBX 5 6 0 -1
BITMAP
78
88
88
78
08
08
ENDCHAR
STARTCHAR r
ENCODING 114
SWIDTH 750 0
DWIDTH 6 0
BBX 5 5 0 0
BITMAP
B0
C8
80
80
80
ENDCHAR
STARTCHAR s
ENCODING 115
SWIDTH 750 0
DWIDTH 6 0
BBX 5 5 0 0
BITMAP
78
80
70
08
F0
ENDCHAR
STARTCHAR t
ENCODING 116
SWIDTH 750 0
DWIDTH 6 0
BBX 4 6 1 0
BITMAP
40
F0
40
40
40
30
ENDCHAR
STARTCHAR u
ENCODING 117
SWIDTH 750 0
DWIDTH 6 0
BBX 5 5 0 0
BITMAP
88
88
88
98
68
ENDCHAR
STARTCHAR v
ENCODING 118
SWIDTH 750 0
DWIDTH 6 0
BBX 5 5 0 0
BITMAP
88
88
50
50
20
ENDCHAR
STARTCHAR w
ENCODING 119
SWIDTH 750 0
DWIDTH 6 0
BBX 5 5 0 0
BITMAP
88
88
A8
A8
50
ENDCHAR
STARTCHAR x
ENCODING 120
SWIDTH 750 0
DWIDTH 6 0
BBX 5 5 0 0
BITMAP
88
50
20
50
88
ENDCHAR
STARTCHAR y
ENCODING 121
SWIDTH 750 0
DWIDTH 6 0
BBX 5 6 0 -1
BITMAP
88
88
50
50
20
C0
ENDCHAR
STARTCHAR z
ENCODING 122
SWIDTH 750 0
DWIDTH 6 0
BBX 5 5 0 0
BITMAP
F8
10
20
40
F8
ENDCHAR
STARTCHAR braceleft
ENCODING 123
SWIDTH 750 0
DWIDTH 6 0
BBX 3 7 1 0
BITMAP
20
40
40
80
40
40
20
ENDCHAR
STARTCHAR bar
ENCODING 124
SWIDTH 750 0
DWIDTH 6 0
BBX 1 7 2 0
BITMAP
80
80
80
80
80
80
80
ENDCHAR
STARTCHAR braceright
ENCODING 125
SWIDTH 750 0
DWIDTH 6 0
BBX 3 7 1 0
BITMAP
80
40
40
20
40
40
80
ENDCHAR
STARTCHAR asciitilde
ENCODING 126
SWIDTH 750 0
DWIDTH 6 0
BBX 5 3 0 2
BITMAP
40
A8
10
ENDCHAR
STARTCHAR uni007F
ENCODING 127
SWIDTH 750 0
DWIDTH 6 0
BBX 5 7 0 0
BITMAP
F8
88
D8
A8
D8
88
F8
ENDCHAR
STARTCHAR uni00A0
ENCODING 160
SWIDTH 750 0
DWIDTH 6 0
BBX 1 1 0 0
BITMAP
00
ENDCHAR
STARTCHAR exclamdown
ENCODING 161
SWIDTH 750 0
DWIDTH 6 0
BBX 1 6 2 1
BITMAP
80
00
80
80
80
80
ENDCHAR
STARTCHAR cent
ENCODING 162
SWIDTH 750 0
DWIDTH 6 0
BBX 4 7 0 0
BITMAP
20
70
A0
A0
A0
70
20
ENDCHAR
STARTCHAR sterling
ENCODING 163
SWIDTH 750 0
DWIDTH 6 0
BBX 4 7 1 0
BITMAP
20
50
40
E0
40
40
F0
ENDCHAR
STARTCHAR yen
ENCODING 165
SWIDTH 750 0
DWIDTH 6 0
BBX 5 7 0 0
BITMAP
88
50
20
70
20
70
20
ENDCHAR
STARTCHAR brokenbar
ENCODING 166
SWIDTH 750 0
DWIDTH 6 0
BBX 1 7 2 0
BITMAP
80
80
80
00
80
80
80
ENDCHAR
STARTCHAR section
ENCODING 167
SWIDTH 750 0
DWIDTH 6 0
BBX 5 7 0 0
BITMAP
F0
80
F8
88
F8
08
78
ENDCHAR
STARTCHAR dieresis
ENCODING 168
SWIDTH 750 0
DWIDTH 6 0
BBX 3 1 1 7
BITMAP
A0
ENDCHAR
STARTCHAR copyright
ENCODING 169
SWIDTH 1000 0
DWIDTH 8 0
BBX 7 7 0 0
BITMAP
7C
82
BA
A2
BA
82
7C
ENDCHAR
STARTCHAR ordfeminine
ENCODING 170
SWIDTH 750 0
DWIDTH 6 0
BBX 4 4 2 3
BITMAP
E0
A0
E0
10
ENDCHAR
STARTCHAR guillemotleft
ENCODING 171
SWIDTH 750 0
DWIDTH 6 0
BBX 5 3 0 0
BITMAP
48
90
48
ENDCHAR
STARTCHAR logicalnot
ENCODING 172
SWIDTH 750 0
DWIDTH 6 0
BBX 5 2 0 2
BITMAP
F8
08
ENDCHAR
STARTCHAR registered
ENCODING 174
SWIDTH 1000 0
DWIDTH 8 0
BBX 7 8 0 -1
BITMAP
7C
82
BA
AA
B2
AA
82
7C
ENDCHAR
STARTCHAR macron
ENCODING 175
SWIDTH 750 0
DWIDTH 6 0
BBX 2 1 1 7
BITMAP
C0
ENDCHAR
STARTCHAR degree
ENCODING 176
SWIDTH 500 0
DWIDTH 4 0
BBX 3 3 0 4
BITMAP
40
A0
40
ENDCHAR
STARTCHAR plusminus
ENCODING 177
SWIDTH 750 0
DWIDTH 6 0
BBX 5 7 0 0
BITMAP
20
20
F8
20
20
00
F8
ENDCHAR
STARTCHAR uni00B2
ENCODING 178
SWIDTH 750 0
DWIDTH 6 0
BBX 2 5 4 2
BITMAP
C0
40
C0
80
C0
ENDCHAR
STARTCHAR uni00B3
ENCODING 179
SWIDTH 750 0
DWIDTH 6 0
BBX 2 5 4 2
BITMAP
C0
40
C0
40
C0
ENDCHAR
STARTCHAR acute
ENCODING 180
SWIDTH 750 0
DWIDTH 6 0
BBX 2 2 1 6
BITMAP
40
80
ENDCHAR
STARTCHAR mu
ENCODING 181
SWIDTH 750 0
DWIDTH 6 0
BBX 4 6 0 -1
BITMAP
90
90
90
90
E0
80
ENDCHAR
STARTCHAR paragraph
ENCODING 182
SWIDTH 750 0
DWIDTH 6 0
BBX 5 7 0 0
BITMAP
78
E8
E8
68
28
28
28
ENDCHAR
STARTCHAR periodcentered
ENCODING 183
SWIDTH 750 0
DWIDTH 6 0
BBX 1 1 2 3
BITMAP
80
ENDCHAR
STARTCHAR cedilla
ENCODING 184
SWIDTH 750 0
DWIDTH 6 0
BBX 2 3 2 -2
BITMAP
80
40
80
ENDCHAR
STARTCHAR uni00B9
ENCODING 185
SWIDTH 750 0
DWIDTH 6 0
BBX 3 4 3 3
BITMAP
40
C0
40
E0
ENDCHAR
STARTCHAR ordmasculine
ENCODING 186
SWIDTH 750 0
DWIDTH 6 0
BBX 3 5 3 2
BITMAP
40
A0
40
00
E0
ENDCHAR
STARTCHAR guillemotright
ENCODING 187
SWIDTH 750 0
DWIDTH 6 0
BBX 5 3 0 0
BITMAP
90
48
90
ENDCHAR
STARTCHAR onequarter
ENCODING 188
SWIDTH 750 0
DWIDTH 0 0
BBX 7 7 0 0
BITMAP
24
28
20
00
4A
8E
02
ENDCHAR
STARTCHAR onehalf
ENCODING 189
SWIDTH 750 0
DWIDTH 0 0
BBX 7 7 0 0
BITMAP
24
28
20
0E
42
84
0E
ENDCHAR
STARTCHAR threequarters
ENCODING 190
SWIDTH 750 0
DWIDTH 0 0
BBX 8 8 0 -1
BITMAP
E4
24
E8
28
E5
07
21
40
ENDCHAR
STARTCHAR questiondown
ENCODING 191
SWIDTH 750 0
DWIDTH 6 0
BBX 5 7 0 0
BITMAP
20
00
20
10
08
88
70
ENDCHAR
STARTCHAR Agrave
ENCODING 192
SWIDTH 750 0
DWIDTH 6 0
BBX 5 9 0 0
BITMAP
40
20
20
50
50
88
F8
88
88
ENDCHAR
STARTCHAR Ccedilla
ENCODING 199
SWIDTH 750 0
DWIDTH 6 0
BBX 5 9 0 -2
BITMAP
70
88
80
80
80
88
70
10
20
ENDCHAR
STARTCHAR Edieresis
ENCODING 203
SWIDTH 750 0
DWIDTH 6 0
BBX 5 8 0 0
BITMAP
50
F8
80
80
F0
80
80
F8
ENDCHAR
STARTCHAR Idieresis
ENCODING 207
SWIDTH 750 0
DWIDTH 6 0
BBX 3 8 1 0
BITMAP
A0
E0
40
40
40
40
40
E0
ENDCHAR
STARTCHAR multiply
ENCODING 215
SWIDTH 750 0
DWIDTH 6 0
BBX 5 5 0 1
BITMAP
88
50
20
50
88
ENDCHAR
STARTCHAR Oslash
ENCODING 216
SWIDTH 900 0
DWIDTH 7 0
BBX 7 7 0 0
BITMAP
3A
44
4C
54
64
44
B8
ENDCHAR
STARTCHAR divide
ENCODING 247
SWIDTH 750 0
DWIDTH 6 0
BBX 5 5 0 1
BITMAP
20
00
F8
00
20
ENDCHAR
STARTCHAR oslash
ENCODING 248
SWIDTH 900 0
DWIDTH 7 0
BBX 7 7 0 -1
BITMAP
02
3C
4C
54
64
78
80
ENDCHAR
STARTCHAR uni0191
ENCODING 401
SWIDTH 750 0
DWIDTH 6 0
BBX 6 8 0 -1
BITMAP
7C
40
40
78
40
40
40
80
ENDCHAR
STARTCHAR florin
ENCODING 402
SWIDTH 750 0
DWIDTH 6 0
BBX 4 8 1 -1
BITMAP
30
40
E0
40
40
40
40
80
ENDCHAR
STARTCHAR uni01A9
ENCODING 425
SWIDTH 750 0
DWIDTH 6 0
BBX 5 7 0 0
BITMAP
F8
88
40
20
40
88
F8
ENDCHAR
STARTCHAR AEacute
ENCODING 508
SWIDTH 1000 0
DWIDTH 0 0
BBX 1 1 0 0
BITMAP
00
ENDCHAR
STARTCHAR aeacute
ENCODING 509
SWIDTH 1000 0
DWIDTH 0 0
BBX 1 1 0 0
BITMAP
00
ENDCHAR
STARTCHAR Oslashacute
ENCODING 510
SWIDTH 1000 0
DWIDTH 0 0
BBX 1 1 0 0
BITMAP
00
ENDCHAR
STARTCHAR oslashacute
ENCODING 511
SWIDTH 1000 0
DWIDTH 0 0
BBX 1 1 0 0
BITMAP
00
ENDCHAR
STARTCHAR uni0200
ENCODING 512
SWIDTH 1000 0
DWIDTH 0 0
BBX 1 1 0 0
BITMAP
00
ENDCHAR
STARTCHAR uni0201
ENCODING 513
SWIDTH 1000 0
DWIDTH 0 0
BBX 1 1 0 0
BITMAP
00
ENDCHAR
STARTCHAR uni0202
ENCODING 514
SWIDTH 1000 0
DWIDTH 0 0
BBX 1 1 0 0
BITMAP
00
ENDCHAR
STARTCHAR uni0203
ENCODING 515
SWIDTH 1000 0
DWIDTH 0 0
BBX 1 1 0 0
BITMAP
00
ENDCHAR
STARTCHAR uni0204
ENCODING 516
SWIDTH 1000 0
DWIDTH 0 0
BBX 1 1 0 0
BITMAP
00
ENDCHAR
STARTCHAR uni0205
ENCODING 517
SWIDTH 1000 0
DWIDTH 0 0
BBX 1 1 0 0
BITMAP
00
ENDCHAR
STARTCHAR uni0206
ENCODING 518
SWIDTH 1000 0
DWIDTH 0 0
BBX 1 1 0 0
BITMAP
00
ENDCHAR
STARTCHAR uni0207
ENCODING 519
SWIDTH 1000 0
DWIDTH 0 0
BBX 1 1 0 0
BITMAP
00
ENDCHAR
STARTCHAR uni0208
ENCODING 520
SWIDTH 1000 0
DWIDTH 0 0
BBX 1 1 0 0
BITMAP
00
ENDCHAR
STARTCHAR uni0209
ENCODING 521
SWIDTH 1000 0
DWIDTH 0 0
BBX 1 1 0 0
BITMAP
00
ENDCHAR
STARTCHAR uni020A
ENCODING 522
SWIDTH 1000 0
DWIDTH 0 0
BBX 1 1 0 0
BITMAP
00
ENDCHAR
STARTCHAR uni020B
ENCODING 523
SWIDTH 1000 0
DWIDTH 0 0
BBX 1 1 0 0
BITMAP
00
ENDCHAR
STARTCHAR uni020C
ENCODING 524
SWIDTH 1000 0
DWIDTH 0 0
BBX 1 1 0 0
BITMAP
00
ENDCHAR
STARTCHAR uni020D
ENCODING 525
SWIDTH 1000 0
DWIDTH 0 0
BBX 1 1 0 0
BITMAP
00
ENDCHAR
STARTCHAR uni020E
ENCODING 526
SWIDTH 1000 0
DWIDTH 0 0
BBX 1 1 0 0
BITMAP
00
ENDCHAR
STARTCHAR uni020F
ENCODING 527
SWIDTH 1000 0
DWIDTH 0 0
BBX 1 1 0 0
BITMAP
00
ENDCHAR
STARTCHAR uni0210
ENCODING 528
SWIDTH 1000 0
DWIDTH 0 0
BBX 1 1 0 0
BITMAP
00
ENDCHAR
STARTCHAR uni0211
ENCODING 529
SWIDTH 1000 0
DWIDTH 0 0
BBX 1 1 0 0
BITMAP
00
ENDCHAR
STARTCHAR uni0212
ENCODING 530
SWIDTH 1000 0
DWIDTH 0 0
BBX 1 1 0 0
BITMAP
00
ENDCHAR
STARTCHAR uni0213
ENCODING 531
SWIDTH 1000 0
DWIDTH 0 0
BBX 1 1 0 0
BITMAP
00
ENDCHAR
STARTCHAR uni0214
ENCODING 532
SWIDTH 1000 0
DWIDTH 0 0
BBX 1 1 0 0
BITMAP
00
ENDCHAR
STARTCHAR uni0215
ENCODING 533
SWIDTH 1000 0
DWIDTH 0 0
BBX 1 1 0 0
BITMAP
00
ENDCHAR
STARTCHAR uni0216
ENCODING 534
SWIDTH 1000 0
DWIDTH 0 0
BBX 1 1 0 0
BITMAP
00
ENDCHAR
STARTCHAR uni0217
ENCODING 535
SWIDTH 1000 0
DWIDTH 0 0
BBX 1 1 0 0
BITMAP
00
ENDCHAR
STARTCHAR uni0218
ENCODING 536
SWIDTH 1000 0
DWIDTH 0 0
BBX 1 1 0 0
BITMAP
00
ENDCHAR
STARTCHAR uni0219
ENCODING 537
SWIDTH 1000 0
DWIDTH 0 0
BBX 1 1 0 0
BITMAP
00
ENDCHAR
STARTCHAR uni021A
ENCODING 538
SWIDTH 1000 0
DWIDTH 0 0
BBX 1 1 0 0
BITMAP
00
ENDCHAR
STARTCHAR uni021B
ENCODING 539
SWIDTH 1000 0
DWIDTH 0 0
BBX 1 1 0 0
BITMAP
00
ENDCHAR
STARTCHAR uni021C
ENCODING 540
SWIDTH 1000 0
DWIDTH 0 0
BBX 1 1 0 0
BITMAP
00
ENDCHAR
STARTCHAR uni021D
ENCODING 541
SWIDTH 1000 0
DWIDTH 0 0
BBX 1 1 0 0
BITMAP
00
ENDCHAR
STARTCHAR uni021E
ENCODING 542
SWIDTH 1000 0
DWIDTH 0 0
BBX 1 1 0 0
BITMAP
00
ENDCHAR
STARTCHAR uni021F
ENCODING 543
SWIDTH 1000 0
DWIDTH 0 0
BBX 1 1 0 0
BITMAP
00
ENDCHAR
STARTCHAR uni0220
ENCODING 544
SWIDTH 1000 0
DWIDTH 0 0
BBX 1 1 0 0
BITMAP
00
ENDCHAR
STARTCHAR uni0221
ENCODING 545
SWIDTH 1000 0
DWIDTH 0 0
BBX 1 1 0 0
BITMAP
00
ENDCHAR
STARTCHAR uni0222
ENCODING 546
SWIDTH 1000 0
DWIDTH 0 0
BBX 1 1 0 0
BITMAP
00
ENDCHAR
STARTCHAR uni0223
ENCODING 547
SWIDTH 1000 0
DWIDTH 0 0
BBX 1 1 0 0
BITMAP
00
ENDCHAR
STARTCHAR uni0224
ENCODING 548
SWIDTH 1000 0
DWIDTH 0 0
BBX 1 1 0 0
BITMAP
00
ENDCHAR
STARTCHAR uni0225
ENCODING 549
SWIDTH 1000 0
DWIDTH 0 0
BBX 1 1 0 0
BITMAP
00
ENDCHAR
STARTCHAR uni0226
ENCODING 550
SWIDTH 1000 0
DWIDTH 0 0
BBX 1 1 0 0
BITMAP
00
ENDCHAR
STARTCHAR uni0227
ENCODING 551
SWIDTH 1000 0
DWIDTH 0 0
BBX 1 1 0 0
BITMAP
00
ENDCHAR
STARTCHAR uni0228
ENCODING 552
SWIDTH 1000 0
DWIDTH 0 0
BBX 1 1 0 0
BITMAP
00
ENDCHAR
STARTCHAR uni0229
ENCODING 553
SWIDTH 1000 0
DWIDTH 0 0
BBX 1 1 0 0
BITMAP
00
ENDCHAR
STARTCHAR uni022A
ENCODING 554
SWIDTH 1000 0
DWIDTH 0 0
BBX 1 1 0 0
BITMAP
00
ENDCHAR
STARTCHAR uni022B
ENCODING 555
SWIDTH 1000 0
DWIDTH 0 0
BBX 1 1 0 0
BITMAP
00
ENDCHAR
STARTCHAR uni022C
ENCODING 556
SWIDTH 1000 0
DWIDTH 0 0
BBX 1 1 0 0
BITMAP
00
ENDCHAR
STARTCHAR uni022D
ENCODING 557
SWIDTH 1000 0
DWIDTH 0 0
BBX 1 1 0 0
BITMAP
00
ENDCHAR
STARTCHAR uni022E
ENCODING 558
SWIDTH 1000 0
DWIDTH 0 0
BBX 1 1 0 0
BITMAP
00
ENDCHAR
STARTCHAR uni022F
ENCODING 559
SWIDTH 1000 0
DWIDTH 0 0
BBX 1 1 0 0
BITMAP
00
ENDCHAR
STARTCHAR uni0230
ENCODING 560
SWIDTH 1000 0
DWIDTH 0 0
BBX 1 1 0 0
BITMAP
00
ENDCHAR
STARTCHAR uni0231
ENCODING 561
SWIDTH 1000 0
DWIDTH 0 0
BBX 1 1 0 0
BITMAP
00
ENDCHAR
STARTCHAR uni0232
ENCODING 562
SWIDTH 1000 0
DWIDTH 0 0
BBX 1 1 0 0
BITMAP
00
ENDCHAR
STARTCHAR uni0233
ENCODING 563
SWIDTH 1000 0
DWIDTH 0 0
BBX 1 1 0 0
BITMAP
00
ENDCHAR
STARTCHAR uni0234
ENCODING 564
SWIDTH 1000 0
DWIDTH 0 0
BBX 1 1 0 0
BITMAP
00
ENDCHAR
STARTCHAR uni0235
ENCODING 565
SWIDTH 1000 0
DWIDTH 0 0
BBX 1 1 0 0
BITMAP
00
ENDCHAR
STARTCHAR uni0236
ENCODING 566
SWIDTH 1000 0
DWIDTH 0 0
BBX 1 1 0 0
BITMAP
00
ENDCHAR
STARTCHAR uni0237
ENCODING 567
SWIDTH 1000 0
DWIDTH 0 0
BBX 1 1 0 0
BITMAP
00
ENDCHAR
STARTCHAR uni0238
ENCODING 568
SWIDTH 1000 0
DWIDTH 0 0
BBX 1 1 0 0
BITMAP
00
ENDCHAR
STARTCHAR uni0239
ENCODING 569
SWIDTH 1000 0
DWIDTH 0 0
BBX 1 1 0 0
BITMAP
00
ENDCHAR
STARTCHAR uni023A
ENCODING 570
SWIDTH 1000 0
DWIDTH 0 0
BBX 1 1 0 0
BITMAP
00
ENDCHAR
STARTCHAR uni023B
ENCODING 571
SWIDTH 1000 0
DWIDTH 0 0
BBX 1 1 0 0
BITMAP
00
ENDCHAR
STARTCHAR uni023C
ENCODING 572
SWIDTH 1000 0
DWIDTH 0 0
BBX 1 1 0 0
BITMAP
00
ENDCHAR
STARTCHAR uni023D
ENCODING 573
SWIDTH 1000 0
DWIDTH 0 0
BBX 1 1 0 0
BITMAP
00
ENDCHAR
STARTCHAR uni023E
ENCODING 574
SWIDTH 1000 0
DWIDTH 0 0
BBX 1 1 0 0
BITMAP
00
ENDCHAR
STARTCHAR uni023F
ENCODING 575
SWIDTH 1000 0
DWIDTH 0 0
BBX 1 1 0 0
BITMAP
00
ENDCHAR
STARTCHAR uni0240
ENCODING 576
SWIDTH 1000 0
DWIDTH 0 0
BBX 1 1 0 0
BITMAP
00
ENDCHAR
STARTCHAR uni0241
ENCODING 577
SWIDTH 1000 0
DWIDTH 0 0
BBX 1 1 0 0
BITMAP
00
ENDCHAR
STARTCHAR uni0242
ENCODING 578
SWIDTH 1000 0
DWIDTH 0 0
BBX 1 1 0 0
BITMAP
00
ENDCHAR
STARTCHAR uni0243
ENCODING 579
SWIDTH 1000 0
DWIDTH 0 0
BBX 1 1 0 0
BITMAP
00
ENDCHAR
STARTCHAR uni0244
ENCODING 580
SWIDTH 1000 0
DWIDTH 0 0
BBX 1 1 0 0
BITMAP
00
ENDCHAR
STARTCHAR uni0245
ENCODING 581
SWIDTH 1000 0
DWIDTH 0 0
BBX 1 1 0 0
BITMAP
00
ENDCHAR
STARTCHAR uni0246
ENCODING 582
SWIDTH 1000 0
DWIDTH 0 0
BBX 1 1 0 0
BITMAP
00
ENDCHAR
STARTCHAR uni0247
ENCODING 583
SWIDTH 1000 0
DWIDTH 0 0
BBX 1 1 0 0
BITMAP
00
ENDCHAR
STARTCHAR uni0248
ENCODING 584
SWIDTH 1000 0
DWIDTH 0 0
BBX 1 1 0 0
BITMAP
00
ENDCHAR
STARTCHAR uni0249
ENCODING 585
SWIDTH 1000 0
DWIDTH 0 0
BBX 1 1 0 0
BITMAP
00
ENDCHAR
STARTCHAR uni024A
ENCODING 586
SWIDTH 1000 0
DWIDTH 0 0
BBX 1 1 0 0
BITMAP
00
ENDCHAR
STARTCHAR uni024B
ENCODING 587
SWIDTH 1000 0
DWIDTH 0 0
BBX 1 1 0 0
BITMAP
00
ENDCHAR
STARTCHAR uni024C
ENCODING 588
SWIDTH 1000 0
DWIDTH 0 0
BBX 1 1 0 0
BITMAP
00
ENDCHAR
STARTCHAR uni024D
ENCODING 589
SWIDTH 1000 0
DWIDTH 0 0
BBX 1 1 0 0
BITMAP
00
ENDCHAR
STARTCHAR uni024E
ENCODING 590
SWIDTH 1000 0
DWIDTH 0 0
BBX 1 1 0 0
BITMAP
00
ENDCHAR
STARTCHAR uni024F
ENCODING 591
SWIDTH 1000 0
DWIDTH 0 0
BBX 1 1 0 0
BITMAP
00
ENDCHAR
STARTCHAR uni0250
ENCODING 592
SWIDTH 1000 0
DWIDTH 0 0
BBX 1 1 0 0
BITMAP
00
ENDCHAR
STARTCHAR uni0251
ENCODING 593
SWIDTH 1000 0
DWIDTH 0 0
BBX 1 1 0 0
BITMAP
00
ENDCHAR
STARTCHAR uni0252
ENCODING 594
SWIDTH 1000 0
DWIDTH 0 0
BBX 1 1 0 0
BITMAP
00
ENDCHAR
STARTCHAR uni0253
ENCODING 595
SWIDTH 1000 0
DWIDTH 0 0
BBX 1 1 0 0
BITMAP
00
ENDCHAR
STARTCHAR uni0254
ENCODING 596
SWIDTH 1000 0
DWIDTH 0 0
BBX 1 1 0 0
BITMAP
00
ENDCHAR
STARTCHAR uni0255
ENCODING 597
SWIDTH 1000 0
DWIDTH 0 0
BBX 1 1 0 0
BITMAP
00
ENDCHAR
STARTCHAR uni0256
ENCODING 598
SWIDTH 1000 0
DWIDTH 0 0
BBX 1 1 0 0
BITMAP
00
ENDCHAR
STARTCHAR uni0257
ENCODING 599
SWIDTH 1000 0
DWIDTH 0 0
BBX 1 1 0 0
BITMAP
00
ENDCHAR
STARTCHAR uni0258
ENCODING 600
SWIDTH 1000 0
DWIDTH 0 0
BBX 1 1 0 0
BITMAP
00
ENDCHAR
STARTCHAR uni0259
ENCODING 601
SWIDTH 1000 0
DWIDTH 0 0
BBX 1 1 0 0
BITMAP
00
ENDCHAR
STARTCHAR uni025A
ENCODING 602
SWIDTH 1000 0
DWIDTH 0 0
BBX 1 1 0 0
BITMAP
00
ENDCHAR
STARTCHAR uni025B
ENCODING 603
SWIDTH 1000 0
DWIDTH 0 0
BBX 1 1 0 0
BITMAP
00
ENDCHAR
STARTCHAR uni025C
ENCODING 604
SWIDTH 1000 0
DWIDTH 0 0
BBX 1 1 0 0
BITMAP
00
ENDCHAR
STARTCHAR uni025D
ENCODING 605
SWIDTH 1000 0
DWIDTH 0 0
BBX 1 1 0 0
BITMAP
00
ENDCHAR
STARTCHAR uni025E
ENCODING 606
SWIDTH 1000 0
DWIDTH 0 0
BBX 1 1 0 0
BITMAP
00
ENDCHAR
STARTCHAR uni025F
ENCODING 607
SWIDTH 1000 0
DWIDTH 0 0
BBX 1 1 0 0
BITMAP
00
ENDCHAR
STARTCHAR uni0260
ENCODING 608
SWIDTH 1000 0
DWIDTH 0 0
BBX 1 1 0 0
BITMAP
00
ENDCHAR
STARTCHAR uni0261
ENCODING 609
SWIDTH 1000 0
DWIDTH 0 0
BBX 1 1 0 0
BITMAP
00
ENDCHAR
STARTCHAR uni0262
ENCODING 610
SWIDTH 1000 0
DWIDTH 0 0
BBX 1 1 0 0
BITMAP
00
ENDCHAR
STARTCHAR uni0263
ENCODING 611
SWIDTH 1000 0
DWIDTH 0 0
BBX 1 1 0 0
BITMAP
00
ENDCHAR
STARTCHAR uni0264
ENCODING 612
SWIDTH 1000 0
DWIDTH 0 0
BBX 1 1 0 0
BITMAP
00
ENDCHAR
STARTCHAR uni0265
ENCODING 613
SWIDTH 1000 0
DWIDTH 0 0
BBX 1 1 0 0
BITMAP
00
ENDCHAR
STARTCHAR uni0266
ENCODING 614
SWIDTH 1000 0
DWIDTH 0 0
BBX 1 1 0 0
BITMAP
00
ENDCHAR
STARTCHAR uni0267
ENCODING 615
SWIDTH 1000 0
DWIDTH 0 0
BBX 1 1 0 0
BITMAP
00
ENDCHAR
STARTCHAR uni0268
ENCODING 616
SWIDTH 1000 0
DWIDTH 0 0
BBX 1 1 0 0
BITMAP
00
ENDCHAR
STARTCHAR uni0269
ENCODING 617
SWIDTH 1000 0
DWIDTH 0 0
BBX 1 1 0 0
BITMAP
00
ENDCHAR
STARTCHAR uni026A
ENCODING 618
SWIDTH 1000 0
DWIDTH 0 0
BBX 1 1 0 0
BITMAP
00
ENDCHAR
STARTCHAR uni026B
ENCODING 619
SWIDTH 1000 0
DWIDTH 0 0
BBX 1 1 0 0
BITMAP
00
ENDCHAR
STARTCHAR uni026C
ENCODING 620
SWIDTH 1000 0
DWIDTH 0 0
BBX 1 1 0 0
BITMAP
00
ENDCHAR
STARTCHAR uni02A3
ENCODING 675
SWIDTH 750 0
DWIDTH 6 0
BBX 7 6 0 0
BITMAP
20
20
3E
E4
A8
FE
ENDCHAR
STARTCHAR uni02A4
ENCODING 676
SWIDTH 750 0
DWIDTH 6 0
BBX 7 7 0 -1
BITMAP
20
20
3E
E4
A2
EA
0E
ENDCHAR
STARTCHAR uni02A6
ENCODING 678
SWIDTH 750 0
DWIDTH 6 0
BBX 7 6 0 0
BITMAP
40
4E
E8
4E
42
6E
ENDCHAR
STARTCHAR uni02A7
ENCODING 679
SWIDTH 750 0
DWIDTH 6 0
BBX 6 7 0 -1
BITMAP
4C
48
E8
48
48
68
18
ENDCHAR
STARTCHAR uni02AA
ENCODING 682
SWIDTH 750 0
DWIDTH 0 0
BBX 1 1 0 0
BITMAP
00
ENDCHAR
STARTCHAR Alpha
ENCODING 913
SWIDTH 750 0
DWIDTH 6 0
BBX 5 7 0 0
BITMAP
20
50
50
88
F8
88
88
ENDCHAR
STARTCHAR Beta
ENCODING 914
SWIDTH 750 0
DWIDTH 6 0
BBX 5 7 0 0
BITMAP
F0
88
88
F0
88
88
F0
ENDCHAR
STARTCHAR Gamma
ENCODING 915
SWIDTH 750 0
DWIDTH 6 0
BBX 5 6 0 0
BITMAP
F8
80
80
80
80
80
ENDCHAR
STARTCHAR uni0394
ENCODING 916
SWIDTH 750 0
DWIDTH 6 0
BBX 5 6 0 0
BITMAP
20
20
50
50
88
F8
ENDCHAR
STARTCHAR Epsilon
ENCODING 917
SWIDTH 750 0
DWIDTH 6 0
BBX 5 7 0 0
BITMAP
F8
80
80
F0
80
80
F8
ENDCHAR
STARTCHAR Zeta
ENCODING 918
SWIDTH 750 0
DWIDTH 6 0
BBX 5 7 0 0
BITMAP
F8
08
10
20
40
80
F8
ENDCHAR
STARTCHAR Eta
ENCODING 919
SWIDTH 750 0
DWIDTH 6 0
BBX 5 7 0 0
BITMAP
88
88
88
F8
88
88
88
ENDCHAR
STARTCHAR Theta
ENCODING 920
SWIDTH 750 0
DWIDTH 6 0
BBX 5 7 0 0
BITMAP
70
88
88
F8
88
88
70
ENDCHAR
STARTCHAR Iota
ENCODING 921
SWIDTH 750 0
DWIDTH 6 0
BBX 3 7 1 0
BITMAP
E0
40
40
40
40
40
E0
ENDCHAR
STARTCHAR Kappa
ENCODING 922
SWIDTH 750 0
DWIDTH 6 0
BBX 5 7 0 0
BITMAP
88
90
A0
C0
A0
90
88
ENDCHAR
STARTCHAR Lambda
ENCODING 923
SWIDTH 750 0
DWIDTH 6 0
BBX 5 6 0 0
BITMAP
20
20
50
50
88
88
ENDCHAR
STARTCHAR Mu
ENCODING 924
SWIDTH 750 0
DWIDTH 6 0
BBX 5 7 0 0
BITMAP
88
D8
A8
A8
88
88
88
ENDCHAR
STARTCHAR Nu
ENCODING 925
SWIDTH 750 0
DWIDTH 6 0
BBX 5 7 0 0
BITMAP
88
88
C8
A8
98
88
88
ENDCHAR
STARTCHAR Xi
ENCODING 926
SWIDTH 750 0
DWIDTH 6 0
BBX 5 7 0 0
BITMAP
F8
00
00
70
00
00
F8
ENDCHAR
STARTCHAR Omicron
ENCODING 927
SWIDTH 750 0
DWIDTH 6 0
BBX 5 7 0 0
BITMAP
70
88
88
88
88
88
70
ENDCHAR
STARTCHAR Pi
ENCODING 928
SWIDTH 750 0
DWIDTH 6 0
BBX 5 6 0 0
BITMAP
F8
88
88
88
88
88
ENDCHAR
STARTCHAR Rho
ENCODING 929
SWIDTH 750 0
DWIDTH 6 0
BBX 5 7 0 0
BITMAP
F0
88
88
F0
80
80
80
ENDCHAR
STARTCHAR Sigma
ENCODING 931
SWIDTH 750 0
DWIDTH 6 0
BBX 5 7 0 0
BITMAP
F8
80
40
20
40
80
F8
ENDCHAR
STARTCHAR Tau
ENCODING 932
SWIDTH 750 0
DWIDTH 6 0
BBX 5 7 0 0
BITMAP
F8
20
20
20
20
20
20
ENDCHAR
STARTCHAR Upsilon
ENCODING 933
SWIDTH 750 0
DWIDTH 6 0
BBX 5 7 0 0
BITMAP
88
88
50
50
20
20
20
ENDCHAR
STARTCHAR Phi
ENCODING 934
SWIDTH 750 0
DWIDTH 6 0
BBX 5 7 0 0
BITMAP
20
70
A8
A8
A8
70
20
ENDCHAR
STARTCHAR Chi
ENCODING 935
SWIDTH 750 0
DWIDTH 6 0
BBX 5 7 0 0
BITMAP
88
50
50
20
50
50
88
ENDCHAR
STARTCHAR uni0410
ENCODING 1040
SWIDTH 750 0
DWIDTH 6 0
BBX 5 7 0 0
BITMAP
20
50
50
88
F8
88
88
ENDCHAR
STARTCHAR uni0411
ENCODING 1041
SWIDTH 750 0
DWIDTH 6 0
BBX 5 7 0 0
BITMAP
F0
80
80
F0
88
88
F0
ENDCHAR
STARTCHAR uni0412
ENCODING 1042
SWIDTH 750 0
DWIDTH 6 0
BBX 5 7 0 0
BITMAP
F0
88
88
F0
88
88
F0
ENDCHAR
STARTCHAR uni0413
ENCODING 1043
SWIDTH 750 0
DWIDTH 6 0
BBX 5 6 0 0
BITMAP
F8
80
80
80
80
80
ENDCHAR
STARTCHAR uni0415
ENCODING 1045
SWIDTH 750 0
DWIDTH 6 0
BBX 5 7 0 0
BITMAP
F8
80
80
F0
80
80
F8
ENDCHAR
STARTCHAR uni0417
ENCODING 1047
SWIDTH 750 0
DWIDTH 6 0
BBX 5 7 0 0
BITMAP
70
88
08
70
08
88
70
ENDCHAR
STARTCHAR uni041A
ENCODING 1050
SWIDTH 750 0
DWIDTH 6 0
BBX 5 7 0 0
BITMAP
88
90
A0
C0
A0
90
88
ENDCHAR
STARTCHAR uni041C
ENCODING 1052
SWIDTH 750 0
DWIDTH 6 0
BBX 5 7 0 0
BITMAP
88
D8
A8
A8
88
88
88
ENDCHAR
STARTCHAR uni041D
ENCODING 1053
SWIDTH 750 0
DWIDTH 6 0
BBX 5 7 0 0
BITMAP
88
88
88
F8
88
88
88
ENDCHAR
STARTCHAR uni041E
ENCODING 1054
SWIDTH 750 0
DWIDTH 6 0
BBX 5 7 0 0
BITMAP
70
88
88
88
88
88
70
ENDCHAR
STARTCHAR uni041F
ENCODING 1055
SWIDTH 750 0
DWIDTH 6 0
BBX 5 6 0 0
BITMAP
F8
88
88
88
88
88
ENDCHAR
STARTCHAR uni0420
ENCODING 1056
SWIDTH 750 0
DWIDTH 6 0
BBX 5 7 0 0
BITMAP
F8
20
20
20
20
20
20
ENDCHAR
STARTCHAR uni0421
ENCODING 1057
SWIDTH 750 0
DWIDTH 6 0
BBX 5 7 0 0
BITMAP
70
88
80
80
80
88
70
ENDCHAR
STARTCHAR uni0422
ENCODING 1058
SWIDTH 750 0
DWIDTH 6 0
BBX 5 7 0 0
BITMAP
F8
20
20
20
20
20
20
ENDCHAR
STARTCHAR uni0423
ENCODING 1059
SWIDTH 750 0
DWIDTH 6 0
BBX 5 6 0 -1
BITMAP
88
88
50
50
20
C0
ENDCHAR
STARTCHAR uni0424
ENCODING 1060
SWIDTH 750 0
DWIDTH 6 0
BBX 5 7 0 0
BITMAP
20
70
A8
A8
A8
70
20
ENDCHAR
STARTCHAR uni0425
ENCODING 1061
SWIDTH 750 0
DWIDTH 6 0
BBX 5 7 0 0
BITMAP
88
50
50
20
50
50
88
ENDCHAR
STARTCHAR uni0428
ENCODING 1064
SWIDTH 750 0
DWIDTH 6 0
BBX 5 6 0 1
BITMAP
A8
A8
A8
A8
A8
F8
ENDCHAR
STARTCHAR uni0429
ENCODING 1065
SWIDTH 750 0
DWIDTH 6 0
BBX 6 7 0 0
BITMAP
A8
A8
A8
A8
A8
F8
0C
ENDCHAR
STARTCHAR uni042A
ENCODING 1066
SWIDTH 750 0
DWIDTH 6 0
BBX 7 7 -1 0
BITMAP
E0
20
20
3C
22
22
3C
ENDCHAR
STARTCHAR uni042B
ENCODING 1067
SWIDTH 1000 0
DWIDTH 8 0
BBX 8 7 0 0
BITMAP
82
82
82
F2
8A
8A
F3
ENDCHAR
STARTCHAR uni042C
ENCODING 1068
SWIDTH 750 0
DWIDTH 6 0
BBX 5 7 0 0
BITMAP
80
80
80
F0
88
88
F0
ENDCHAR
STARTCHAR uni0430
ENCODING 1072
SWIDTH 750 0
DWIDTH 6 0
BBX 5 5 0 0
BITMAP
70
08
78
88
78
ENDCHAR
STARTCHAR uni0581
ENCODING 1409
SWIDTH 750 0
DWIDTH 6 0
BBX 5 6 0 -1
BITMAP
70
88
88
78
08
70
ENDCHAR
STARTCHAR uni06E9
ENCODING 1769
SWIDTH 1000 0
DWIDTH 8 0
BBX 5 7 0 0
BITMAP
20
70
D8
50
50
50
F8
ENDCHAR
STARTCHAR uni23CE
ENCODING 9166
SWIDTH 1000 0
DWIDTH 8 0
BBX 6 5 4 1
BITMAP
04
04
44
FC
40
ENDCHAR
STARTCHAR uni23CF
ENCODING 9167
SWIDTH 1000 0
DWIDTH 8 0
BBX 7 6 0 0
BITMAP
10
38
7C
FE
00
FE
ENDCHAR
STARTCHAR uni2460
ENCODING 9312
SWIDTH 1000 0
DWIDTH 8 0
BBX 7 8 0 -1
BITMAP
7C
82
B2
92
92
BA
82
7C
ENDCHAR
STARTCHAR uni2474
ENCODING 9332
SWIDTH 1000 0
DWIDTH 8 0
BBX 7 6 0 0
BITMAP
44
92
92
92
92
44
ENDCHAR
STARTCHAR uni2476
ENCODING 9334
SWIDTH 1000 0
DWIDTH 8 0
BBX 7 6 0 0
BITMAP
44
BA
8A
BA
8A
BA
ENDCHAR
STARTCHAR uni2488
ENCODING 9352
SWIDTH 1000 0
DWIDTH 8 0
BBX 5 7 1 0
BITMAP
40
C0
40
40
40
40
E8
ENDCHAR
STARTCHAR uni2489
ENCODING 9353
SWIDTH 1000 0
DWIDTH 8 0
BBX 5 7 1 0
BITMAP
E0
20
20
E0
80
80
E8
ENDCHAR
STARTCHAR uni248B
ENCODING 9355
SWIDTH 1000 0
DWIDTH 8 0
BBX 5 7 1 0
BITMAP
A0
A0
A0
E0
20
20
28
ENDCHAR
STARTCHAR uni2491
ENCODING 9361
SWIDTH 1000 0
DWIDTH 8 0
BBX 7 7 0 0
BITMAP
B8
A8
A8
A8
A8
A8
BA
ENDCHAR
STARTCHAR uni249B
ENCODING 9371
SWIDTH 1000 0
DWIDTH 8 0
BBX 8 7 0 0
BITMAP
EE
2A
2A
EA
8A
8A
ED
ENDCHAR
STARTCHAR uni2780
ENCODING 10112
SWIDTH 1000 0
DWIDTH 8 0
BBX 7 8 0 -1
BITMAP
7C
82
B2
92
92
BA
82
7C
ENDCHAR
STARTCHAR uni27C2
ENCODING 10178
SWIDTH 750 0
DWIDTH 6 0
BBX 3 3 1 1
BITMAP
40
40
E0
ENDCHAR
STARTCHAR uni2802
ENCODING 10242
SWIDTH 750 0
DWIDTH 0 0
BBX 1 1 2 4
BITMAP
80
ENDCHAR
STARTCHAR uni2803
ENCODING 10243
SWIDTH 750 0
DWIDTH 0 0
BBX 1 3 1 3
BITMAP
80
00
80
ENDCHAR
STARTCHAR uni2804
ENCODING 10244
SWIDTH 750 0
DWIDTH 0 0
BBX 1 1 1 1
BITMAP
80
ENDCHAR
STARTCHAR uni2805
ENCODING 10245
SWIDTH 750 0
DWIDTH 0 0
BBX 1 5 1 1
BITMAP
80
00
00
00
80
ENDCHAR
STARTCHAR uni2806
ENCODING 10246
SWIDTH 750 0
DWIDTH 0 0
BBX 1 3 1 2
BITMAP
80
00
80
ENDCHAR
STARTCHAR uni2807
ENCODING 10247
SWIDTH 750 0
DWIDTH 0 0
BBX 1 6 1 0
BITMAP
80
00
80
00
00
80
ENDCHAR
STARTCHAR uni2808
ENCODING 10248
SWIDTH 750 0
DWIDTH 0 0
BBX 1 1 1 5
BITMAP
80
ENDCHAR
STARTCHAR uni2809
ENCODING 10249
SWIDTH 750 0
DWIDTH 0 0
BBX 3 1 1 5
BITMAP
A0
ENDCHAR
STARTCHAR uni280A
ENCODING 10250
SWIDTH 750 0
DWIDTH 0 0
BBX 3 3 1 3
BITMAP
20
00
80
ENDCHAR
STARTCHAR uni280B
ENCODING 10251
SWIDTH 750 0
DWIDTH 0 0
BBX 3 3 1 3
BITMAP
A0
00
80
ENDCHAR
STARTCHAR uni280C
ENCODING 10252
SWIDTH 750 0
DWIDTH 0 0
BBX 5 5 0 1
BITMAP
08
00
00
00
80
ENDCHAR
STARTCHAR uni280D
ENCODING 10253
SWIDTH 750 0
DWIDTH 0 0
BBX 3 4 1 2
BITMAP
A0
00
00
80
ENDCHAR
STARTCHAR uni280E
ENCODING 10254
SWIDTH 750 0
DWIDTH 0 0
BBX 3 5 1 1
BITMAP
20
00
80
00
80
ENDCHAR
STARTCHAR uni280F
ENCODING 10255
SWIDTH 750 0
DWIDTH 0 0
BBX 3 5 1 1
BITMAP
A0
00
80
00
80
ENDCHAR
STARTCHAR uni2810
ENCODING 10256
SWIDTH 750 0
DWIDTH 0 0
BBX 1 1 2 4
BITMAP
80
ENDCHAR
STARTCHAR uni2811
ENCODING 10257
SWIDTH 750 0
DWIDTH 0 0
BBX 3 3 0 4
BITMAP
80
00
20
ENDCHAR
STARTCHAR uni2812
ENCODING 10258
SWIDTH 750 0
DWIDTH 0 0
BBX 3 1 0 4
BITMAP
A0
ENDCHAR
STARTCHAR uni2813
ENCODING 10259
SWIDTH 750 0
DWIDTH 0 0
BBX 3 3 0 4
BITMAP
80
00
A0
ENDCHAR
STARTCHAR uni2814
ENCODING 10260
SWIDTH 750 0
DWIDTH 0 0
BBX 3 3 0 1
BITMAP
20
00
80
ENDCHAR
STARTCHAR uni2815
ENCODING 10261
SWIDTH 750 0
DWIDTH 0 0
BBX 3 5 0 1
BITMAP
80
00
20
00
80
ENDCHAR
STARTCHAR uni2816
ENCODING 10262
SWIDTH 750 0
DWIDTH 0 0
BBX 3 3 0 1
BITMAP
A0
00
80
ENDCHAR
STARTCHAR uni2817
ENCODING 10263
SWIDTH 750 0
DWIDTH 0 0
BBX 3 5 0 1
BITMAP
80
00
A0
00
80
ENDCHAR
STARTCHAR uni2818
ENCODING 10264
SWIDTH 750 0
DWIDTH 0 0
BBX 1 3 2 3
BITMAP
80
00
80
ENDCHAR
STARTCHAR uni2819
ENCODING 10265
SWIDTH 750 0
DWIDTH 0 0
BBX 3 3 2 3
BITMAP
A0
00
20
ENDCHAR
STARTCHAR uni281A
ENCODING 10266
SWIDTH 750 0
DWIDTH 0 0
BBX 3 3 1 3
BITMAP
20
00
A0
ENDCHAR
STARTCHAR uni281B
ENCODING 10267
SWIDTH 750 0
DWIDTH 0 0
BBX 3 3 1 3
BITMAP
A0
00
A0
ENDCHAR
STARTCHAR uni281C
ENCODING 10268
SWIDTH 750 0
DWIDTH 0 0
BBX 3 4 1 1
BITMAP
20
00
20
80
ENDCHAR
STARTCHAR uni281D
ENCODING 10269
SWIDTH 750 0
DWIDTH 0 0
BBX 3 4 1 2
BITMAP
A0
00
20
80
ENDCHAR
STARTCHAR uni281E
ENCODING 10270
SWIDTH 750 0
DWIDTH 0 0
BBX 3 6 1 1
BITMAP
20
00
A0
00
00
80
ENDCHAR
STARTCHAR uni281F
ENCODING 10271
SWIDTH 750 0
DWIDTH 0 0
BBX 3 6 1 1
BITMAP
A0
00
A0
00
00
80
ENDCHAR
STARTCHAR uni2820
ENCODING 10272
SWIDTH 750 0
DWIDTH 0 0
BBX 1 1 1 1
BITMAP
80
ENDCHAR
STARTCHAR uni2821
ENCODING 10273
SWIDTH 750 0
DWIDTH 0 0
BBX 3 5 0 1
BITMAP
80
00
00
00
20
ENDCHAR
STARTCHAR uni2822
ENCODING 10274
SWIDTH 750 0
DWIDTH 0 0
BBX 3 3 0 1
BITMAP
80
00
20
ENDCHAR
STARTCHAR uni2823
ENCODING 10275
SWIDTH 750 0
DWIDTH 0 0
BBX 3 6 0 1
BITMAP
80
00
80
00
00
20
ENDCHAR
STARTCHAR uni2824
ENCODING 10276
SWIDTH 750 0
DWIDTH 0 0
BBX 3 1 0 1
BITMAP
A0
ENDCHAR
STARTCHAR uni2825
ENCODING 10277
SWIDTH 750 0
DWIDTH 0 0
BBX 3 5 1 1
BITMAP
80
00
00
00
A0
ENDCHAR
STARTCHAR uni28FF
ENCODING 10495
SWIDTH 750 0
DWIDTH 0 0
BBX 3 7 1 0
BITMAP
A0
00
A0
00
A0
00
A0
ENDCHAR
STARTCHAR uni29EB
ENCODING 10731
SWIDTH 750 0
DWIDTH 6 0
BBX 5 7 0 0
BITMAP
20
70
70
F8
70
70
20
ENDCHAR
STARTCHAR uni2F23
ENCODING 12067
SWIDTH 750 0
DWIDTH 6 0
BBX 6 6 0 0
BITMAP
20
7C
84
28
10
20
ENDCHAR
STARTCHAR uni2F24
ENCODING 12068
SWIDTH 750 0
DWIDTH 6 0
BBX 5 6 0 0
BITMAP
20
20
F8
20
50
88
ENDCHAR
STARTCHAR uni3001
ENCODING 12289
SWIDTH 1000 0
DWIDTH 8 0
BBX 2 2 1 0
BITMAP
80
40
ENDCHAR
STARTCHAR uni3002
ENCODING 12290
SWIDTH 1000 0
DWIDTH 8 0
BBX 3 3 1 0
BITMAP
E0
A0
E0
ENDCHAR
STARTCHAR uni3009
ENCODING 12297
SWIDTH 1000 0
DWIDTH 8 0
BBX 3 6 1 0
BITMAP
80
40
20
20
40
80
ENDCHAR
STARTCHAR uni300A
ENCODING 12298
SWIDTH 1000 0
DWIDTH 8 0
BBX 5 6 1 0
BITMAP
28
50
A0
A0
50
28
ENDCHAR
STARTCHAR uni300B
ENCODING 12299
SWIDTH 1000 0
DWIDTH 8 0
BBX 5 6 1 0
BITMAP
A0
50
28
28
50
A0
ENDCHAR
STARTCHAR uni3014
ENCODING 12308
SWIDTH 1000 0
DWIDTH 6 0
BBX 4 7 0 0
BITMAP
30
40
80
80
80
40
30
ENDCHAR
STARTCHAR uni3015
ENCODING 12309
SWIDTH 1000 0
DWIDTH 6 0
BBX 4 7 1 0
BITMAP
C0
20
10
10
10
20
C0
ENDCHAR
STARTCHAR uni3063
ENCODING 12387
SWIDTH 1000 0
DWIDTH 8 0
BBX 5 5 0 0
BITMAP
10
E8
08
08
30
ENDCHAR
STARTCHAR uni3064
ENCODING 12388
SWIDTH 1000 0
DWIDTH 8 0
BBX 5 5 0 0
BITMAP
F0
08
08
08
30
ENDCHAR
STARTCHAR uni3065
ENCODING 12389
SWIDTH 1000 0
DWIDTH 8 0
BBX 7 7 0 0
BITMAP
02
04
F0
08
08
08
30
ENDCHAR
STARTCHAR uni3066
ENCODING 12390
SWIDTH 1000 0
DWIDTH 8 0
BBX 6 7 0 0
BITMAP
1C
E4
08
30
20
10
1C
ENDCHAR
STARTCHAR uni3067
ENCODING 12391
SWIDTH 1000 0
DWIDTH 8 0
BBX 7 7 0 0
BITMAP
1C
E4
08
32
24
10
1C
ENDCHAR
STARTCHAR uni3068
ENCODING 12392
SWIDTH 1000 0
DWIDTH 8 0
BBX 5 7 0 0
BITMAP
20
20
30
40
80
88
78
ENDCHAR
STARTCHAR uni3069
ENCODING 12393
SWIDTH 1000 0
DWIDTH 8 0
BBX 7 7 0 0
BITMAP
22
24
30
40
80
88
78
ENDCHAR
STARTCHAR uni3099
ENCODING 12441
SWIDTH 1000 0
DWIDTH 8 0
BBX 2 2 5 5
BITMAP
40
80
ENDCHAR
STARTCHAR uni309A
ENCODING 12442
SWIDTH 1000 0
DWIDTH 0 0
BBX 1 1 6 5
BITMAP
80
ENDCHAR
STARTCHAR uni309B
ENCODING 12443
SWIDTH 1000 0
DWIDTH 8 0
BBX 2 2 5 5
BITMAP
40
80
ENDCHAR
STARTCHAR uni309C
ENCODING 12444
SWIDTH 1000 0
DWIDTH 0 0
BBX 1 1 6 5
BITMAP
80
ENDCHAR
STARTCHAR uni309D
ENCODING 12445
SWIDTH 1000 0
DWIDTH 8 0
BBX 4 5 1 1
BITMAP
80
40
20
10
60
ENDCHAR
STARTCHAR uni309E
ENCODING 12446
SWIDTH 1000 0
DWIDTH 8 0
BBX 6 6 1 1
BITMAP
04
88
40
20
10
60
ENDCHAR
STARTCHAR uni3105
ENCODING 12549
SWIDTH 1000 0
DWIDTH 0 0
BBX 5 7 1 0
BITMAP
20
40
F8
08
08
28
18
ENDCHAR
STARTCHAR uni3106
ENCODING 12550
SWIDTH 1000 0
DWIDTH 0 0
BBX 5 7 1 0
BITMAP
20
40
F8
10
A0
40
B8
ENDCHAR
STARTCHAR uni3107
ENCODING 12551
SWIDTH 1000 0
DWIDTH 8 0
BBX 6 6 0 0
BITMAP
FC
84
84
84
84
84
ENDCHAR
STARTCHAR uni3108
ENCODING 12552
SWIDTH 1000 0
DWIDTH 0 0
BBX 6 6 0 0
BITMAP
FC
80
80
80
80
FC
ENDCHAR
STARTCHAR uni3109
ENCODING 12553
SWIDTH 1000 0
DWIDTH 0 0
BBX 5 7 1 0
BITMAP
20
40
F8
48
48
48
98
ENDCHAR
STARTCHAR uni310A
ENCODING 12554
SWIDTH 1000 0
DWIDTH 0 0
BBX 6 6 0 0
BITMAP
20
FC
20
40
44
FC
ENDCHAR
STARTCHAR uni310B
ENCODING 12555
SWIDTH 1000 0
DWIDTH 0 0
BBX 6 7 0 0
BITMAP
F0
10
3C
04
04
14
0C
ENDCHAR
STARTCHAR uni310C
ENCODING 12556
SWIDTH 1000 0
DWIDTH 0 0
BBX 6 7 0 0
BITMAP
50
50
FC
24
44
94
0C
ENDCHAR
STARTCHAR uni310D
ENCODING 12557
SWIDTH 1000 0
DWIDTH 0 0
BBX 5 7 0 0
BITMAP
28
28
50
A0
50
28
28
ENDCHAR
STARTCHAR uni310E
ENCODING 12558
SWIDTH 1000 0
DWIDTH 0 0
BBX 7 7 0 0
BITMAP
FE
20
3E
02
02
0A
06
ENDCHAR
STARTCHAR uni310F
ENCODING 12559
SWIDTH 1000 0
DWIDTH 0 0
BBX 7 6 0 0
BITMAP
7E
40
40
40
40
80
ENDCHAR
STARTCHAR uni3110
ENCODING 12560
SWIDTH 1000 0
DWIDTH 0 0
BBX 4 7 1 0
BITMAP
10
10
90
90
70
10
10
ENDCHAR
STARTCHAR uni3111
ENCODING 12561
SWIDTH 1000 0
DWIDTH 0 0
BBX 4 7 0 0
BITMAP
10
20
40
80
40
20
10
ENDCHAR
STARTCHAR uni3112
ENCODING 12562
SWIDTH 1000 0
DWIDTH 0 0
BBX 5 6 1 0
BITMAP
F8
20
20
20
20
20
ENDCHAR
STARTCHAR uni3113
ENCODING 12563
SWIDTH 1000 0
DWIDTH 0 0
BBX 7 6 0 0
BITMAP
10
10
54
7C
10
FE
ENDCHAR
STARTCHAR uni3114
ENCODING 12564
SWIDTH 1000 0
DWIDTH 0 0
BBX 2 7 0 0
BITMAP
40
80
40
C0
40
40
40
ENDCHAR
STARTCHAR uni3115
ENCODING 12565
SWIDTH 1000 0
DWIDTH 0 0
BBX 5 7 1 0
BITMAP
78
08
78
40
40
40
80
ENDCHAR
STARTCHAR uni3116
ENCODING 12566
SWIDTH 1000 0
DWIDTH 0 0
BBX 6 7 1 0
BITMAP
FC
84
A4
94
84
84
FC
ENDCHAR
STARTCHAR uni3117
ENCODING 12567
SWIDTH 1000 0
DWIDTH 0 0
BBX 6 7 0 0
BITMAP
FC
24
24
2C
24
20
20
ENDCHAR
STARTCHAR uni3118
ENCODING 12568
SWIDTH 1000 0
DWIDTH 0 0
BBX 7 7 0 0
BITMAP
10
10
FE
20
3C
04
08
ENDCHAR
STARTCHAR uni3119
ENCODING 12569
SWIDTH 1000 0
DWIDTH 0 0
BBX 7 6 0 0
BITMAP
10
10
20
44
FC
02
ENDCHAR
STARTCHAR uni311A
ENCODING 12570
SWIDTH 1000 0
DWIDTH 0 0
BBX 5 7 0 0
BITMAP
88
50
20
20
20
20
20
ENDCHAR
STARTCHAR uni311B
ENCODING 12571
SWIDTH 1000 0
DWIDTH 0 0
BBX 6 6 0 0
BITMAP
FC
20
20
18
04
38
ENDCHAR
STARTCHAR uni311C
ENCODING 12572
SWIDTH 1000 0
DWIDTH 0 0
BBX 6 7 0 0
BITMAP
20
FC
20
20
18
04
38
ENDCHAR
STARTCHAR uni311D
ENCODING 12573
SWIDTH 1000 0
DWIDTH 0 0
BBX 6 6 0 0
BITMAP
48
FC
48
50
44
7C
ENDCHAR
STARTCHAR uni311E
ENCODING 12574
SWIDTH 1000 0
DWIDTH 0 0
BBX 6 7 0 0
BITMAP
FC
50
FC
24
44
94
0C
ENDCHAR
STARTCHAR uni311F
ENCODING 12575
SWIDTH 1000 0
DWIDTH 0 0
BBX 6 7 0 0
BITMAP
E0
10
10
10
10
14
08
ENDCHAR
STARTCHAR uni3120
ENCODING 12576
SWIDTH 1000 0
DWIDTH 0 0
BBX 5 8 1 -1
BITMAP
20
40
F0
20
40
90
70
08
ENDCHAR
STARTCHAR uni3121
ENCODING 12577
SWIDTH 1000 0
DWIDTH 0 0
BBX 6 6 0 0
BITMAP
F8
08
50
20
50
8C
ENDCHAR
STARTCHAR uni3122
ENCODING 12578
SWIDTH 1000 0
DWIDTH 0 0
BBX 4 7 0 0
BITMAP
F0
10
A0
80
F0
10
20
ENDCHAR
STARTCHAR uni3123
ENCODING 12579
SWIDTH 1000 0
DWIDTH 0 0
BBX 5 6 0 0
BITMAP
40
80
F8
08
10
20
ENDCHAR
STARTCHAR uni3124
ENCODING 12580
SWIDTH 1000 0
DWIDTH 0 0
BBX 7 7 0 0
BITMAP
10
10
FE
20
28
2A
4C
ENDCHAR
STARTCHAR uni3125
ENCODING 12581
SWIDTH 1000 0
DWIDTH 0 0
BBX 6 5 0 1
BITMAP
10
10
20
40
FC
ENDCHAR
STARTCHAR uni3126
ENCODING 12582
SWIDTH 1000 0
DWIDTH 0 0
BBX 6 5 0 0
BITMAP
50
50
50
54
98
ENDCHAR
STARTCHAR uni3127
ENCODING 12583
SWIDTH 1000 0
DWIDTH 0 0
BBX 6 1 0 3
BITMAP
FC
ENDCHAR
STARTCHAR uni3128
ENCODING 12584
SWIDTH 1000 0
DWIDTH 0 0
BBX 5 6 1 0
BITMAP
08
88
50
20
50
88
ENDCHAR
STARTCHAR uni3129
ENCODING 12585
SWIDTH 1000 0
DWIDTH 8 0
BBX 6 6 0 0
BITMAP
84
84
84
84
84
FC
ENDCHAR
STARTCHAR uni312A
ENCODING 12586
SWIDTH 1000 0
DWIDTH 0 0
BBX 6 6 1 0
BITMAP
FC
20
3C
44
44
8C
ENDCHAR
STARTCHAR uni312B
ENCODING 12587
SWIDTH 1000 0
DWIDTH 0 0
BBX 7 5 0 0
BITMAP
FE
28
28
2A
4C
ENDCHAR
STARTCHAR uni312C
ENCODING 12588
SWIDTH 1000 0
DWIDTH 0 0
BBX 6 7 0 0
BITMAP
10
7C
40
40
40
40
80
ENDCHAR
STARTCHAR uni312D
ENCODING 12589
SWIDTH 1000 0
DWIDTH 0 0
BBX 7 7 0 0
BITMAP
FE
10
FE
92
92
96
10
ENDCHAR
STARTCHAR uni31A0
ENCODING 12704
SWIDTH 1000 0
DWIDTH 8 0
BBX 4 6 1 0
BITMAP
40
80
F0
10
50
30
ENDCHAR
STARTCHAR uni31AC
ENCODING 12716
SWIDTH 1000 0
DWIDTH 8 0
BBX 6 6 0 0
BITMAP
FC
94
94
94
94
8C
ENDCHAR
STARTCHAR uni31B0
ENCODING 12720
SWIDTH 1000 0
DWIDTH 8 0
BBX 6 7 0 0
BITMAP
28
FC
94
94
94
94
8C
ENDCHAR
STARTCHAR uni31B1
ENCODING 12721
SWIDTH 1000 0
DWIDTH 8 0
BBX 6 7 0 0
BITMAP
78
FC
94
B4
C4
B4
84
ENDCHAR
STARTCHAR uni31B2
ENCODING 12722
SWIDTH 1000 0
DWIDTH 0 0
BBX 7 6 0 0
BITMAP
7C
10
10
10
10
FE
ENDCHAR
STARTCHAR uni32CC
ENCODING 13004
SWIDTH 1000 0
DWIDTH 8 0
BBX 7 7 0 -1
BITMAP
A0
AE
EA
AE
A2
A2
0E
ENDCHAR
STARTCHAR uni32CE
ENCODING 13006
SWIDTH 1000 0
DWIDTH 6 0
BBX 8 7 0 0
BITMAP
11
11
4A
AA
EA
84
64
ENDCHAR
STARTCHAR uni32CF
ENCODING 13007
SWIDTH 1000 0
DWIDTH 8 0
BBX 8 6 0 0
BITMAP
B8
90
96
95
95
D6
ENDCHAR
STARTCHAR uni4E00
ENCODING 19968
SWIDTH -6000 0
DWIDTH -48 0
BBX 7 1 0 3
BITMAP
FE
ENDCHAR
STARTCHAR uni4E01
ENCODING 19969
SWIDTH 1000 0
DWIDTH 8 0
BBX 7 7 0 0
BITMAP
FE
10
10
10
10
10
30
ENDCHAR
STARTCHAR uni4E02
ENCODING 19970
SWIDTH 1000 0
DWIDTH 8 0
BBX 7 7 0 0
BITMAP
FE
40
40
7C
04
04
0C
ENDCHAR
STARTCHAR uni4E03
ENCODING 19971
SWIDTH 1000 0
DWIDTH 8 0
BBX 7 7 0 0
BITMAP
20
26
38
E0
20
22
1E
ENDCHAR
STARTCHAR uni4E04
ENCODING 19972
SWIDTH 1000 0
DWIDTH 8 0
BBX 7 7 0 0
BITMAP
10
10
10
10
10
10
FE
ENDCHAR
STARTCHAR uni4E05
ENCODING 19973
SWIDTH 1000 0
DWIDTH 8 0
BBX 7 7 0 0
BITMAP
FE
10
10
10
10
10
10
ENDCHAR
STARTCHAR uni4E06
ENCODING 19974
SWIDTH 1000 0
DWIDTH 8 0
BBX 7 4 0 3
BITMAP
FE
10
20
C0
ENDCHAR
STARTCHAR uni4E07
ENCODING 19975
SWIDTH 1000 0
DWIDTH 8 0
BBX 7 7 0 0
BITMAP
FE
40
7C
44
44
84
8C
ENDCHAR
STARTCHAR uni4E08
ENCODING 19976
SWIDTH 1000 0
DWIDTH 8 0
BBX 7 7 0 0
BITMAP
08
FE
08
48
28
10
EE
ENDCHAR
STARTCHAR uni4E09
ENCODING 19977
SWIDTH 1000 0
DWIDTH 8 0
BBX 7 7 0 0
BITMAP
FE
00
00
7C
00
00
FE
ENDCHAR
STARTCHAR uni4E0A
ENCODING 19978
SWIDTH 1000 0
DWIDTH 8 0
BBX 7 7 0 0
BITMAP
10
10
1E
10
10
10
FE
ENDCHAR
STARTCHAR uni4E0B
ENCODING 19979
SWIDTH 1000 0
DWIDTH 8 0
BBX 7 7 0 0
BITMAP
FE
10
10
18
14
10
10
ENDCHAR
STARTCHAR uni4E0C
ENCODING 19980
SWIDTH 1000 0
DWIDTH 8 0
BBX 7 7 0 0
BITMAP
FE
44
44
44
44
44
84
ENDCHAR
STARTCHAR uni4E0D
ENCODING 19981
SWIDTH 1000 0
DWIDTH 8 0
BBX 7 7 0 0
BITMAP
FE
08
10
34
D2
10
10
ENDCHAR
STARTCHAR uni4E0E
ENCODING 19982
SWIDTH 1000 0
DWIDTH 8 0
BBX 7 7 0 0
BITMAP
40
7E
40
7E
02
FA
06
ENDCHAR
STARTCHAR uni4E0F
ENCODING 19983
SWIDTH 1000 0
DWIDTH 8 0
BBX 7 7 0 0
BITMAP
FE
10
9E
92
FE
02
06
ENDCHAR
STARTCHAR uni4E10
ENCODING 19984
SWIDTH 1000 0
DWIDTH 8 0
BBX 7 7 0 0
BITMAP
FE
10
9C
90
FE
02
06
ENDCHAR
STARTCHAR uni4E11
ENCODING 19985
SWIDTH 1000 0
DWIDTH 8 0
BBX 7 7 0 0
BITMAP
7C
24
24
7C
24
24
FE
ENDCHAR
STARTCHAR uni4E12
ENCODING 19986
SWIDTH 1000 0
DWIDTH 8 0
BBX 7 7 0 0
BITMAP
FE
12
52
22
D6
00
FE
ENDCHAR
STARTCHAR uni4E13
ENCODING 19987
SWIDTH 1000 0
DWIDTH 8 0
BBX 7 7 0 0
BITMAP
10
7C
20
FE
04
28
10
ENDCHAR
STARTCHAR uni4E14
ENCODING 19988
SWIDTH 1000 0
DWIDTH 8 0
BBX 7 7 0 0
BITMAP
7C
44
7C
44
7C
44
FE
ENDCHAR
STARTCHAR uni4E15
ENCODING 19989
SWIDTH 1000 0
DWIDTH 8 0
BBX 7 7 0 0
BITMAP
FE
08
34
D2
10
00
FE
ENDCHAR
STARTCHAR uni4E16
ENCODING 19990
SWIDTH 1000 0
DWIDTH 8 0
BBX 7 7 0 0
BITMAP
54
54
FE
54
5C
40
7E
ENDCHAR
STARTCHAR uni4E17
ENCODING 19991
SWIDTH 1000 0
DWIDTH 8 0
BBX 7 7 0 0
BITMAP
10
54
54
FE
54
54
7C
ENDCHAR
STARTCHAR uni4E18
ENCODING 19992
SWIDTH 1000 0
DWIDTH 8 0
BBX 7 7 0 0
BITMAP
7C
40
7C
48
48
48
FE
ENDCHAR
STARTCHAR uni4E19
ENCODING 19993
SWIDTH 1000 0
DWIDTH 8 0
BBX 7 7 0 0
BITMAP
FE
10
FE
92
AA
82
86
ENDCHAR
STARTCHAR uni4E1A
ENCODING 19994
SWIDTH 1000 0
DWIDTH 8 0
BBX 7 7 0 0
BITMAP
28
28
AA
6C
28
28
FE
ENDCHAR
STARTCHAR uni4E1B
ENCODING 19995
SWIDTH 1000 0
DWIDTH 8 0
BBX 7 7 0 0
BITMAP
28
28
54
54
AA
00
FE
ENDCHAR
STARTCHAR uni4E1C
ENCODING 19996
SWIDTH 1000 0
DWIDTH 8 0
BBX 7 7 0 0
BITMAP
20
FE
50
FE
10
54
B2
ENDCHAR
STARTCHAR uni4E1D
ENCODING 19997
SWIDTH 1000 0
DWIDTH 8 0
BBX 7 7 0 0
BITMAP
44
88
66
88
EE
00
FE
ENDCHAR
STARTCHAR uni4E1E
ENCODING 19998
SWIDTH 1000 0
DWIDTH 8 0
BBX 7 7 0 0
BITMAP
FE
08
D2
54
B2
00
FE
ENDCHAR
STARTCHAR uni4E1F
ENCODING 19999
SWIDTH 1000 0
DWIDTH 8 0
BBX 7 7 0 0
BITMAP
FE
10
7C
10
FE
44
FE
ENDCHAR
STARTCHAR uni4E20
ENCODING 20000
SWIDTH 1000 0
DWIDTH 8 0
BBX 7 7 0 0
BITMAP
2A
EC
28
6A
A6
00
FE
ENDCHAR
STARTCHAR uni4E21
ENCODING 20001
SWIDTH 1000 0
DWIDTH 8 0
BBX 7 7 0 0
BITMAP
FE
10
FE
92
D6
BA
86
ENDCHAR
STARTCHAR uni4E22
ENCODING 20002
SWIDTH 1000 0
DWIDTH 8 0
BBX 7 7 0 0
BITMAP
FE
10
7C
10
FE
44
FE
ENDCHAR
STARTCHAR uni4E23
ENCODING 20003
SWIDTH 1000 0
DWIDTH 8 0
BBX 7 7 0 0
BITMAP
FE
28
6E
AA
EE
28
48
ENDCHAR
STARTCHAR uni4E24
ENCODING 20004
SWIDTH 1000 0
DWIDTH 8 0
BBX 7 7 0 0
BITMAP
FE
28
FE
AA
D6
82
86
ENDCHAR
STARTCHAR uni4E25
ENCODING 20005
SWIDTH 1000 0
DWIDTH 8 0
BBX 7 7 0 0
BITMAP
FE
AA
6C
FE
40
40
80
ENDCHAR
STARTCHAR uni4E26
ENCODING 20006
SWIDTH 1000 0
DWIDTH 8 0
BBX 7 7 0 0
BITMAP
82
44
FE
28
AA
6C
FE
ENDCHAR
STARTCHAR uni4E27
ENCODING 20007
SWIDTH 1000 0
DWIDTH 8 0
BBX 7 7 0 0
BITMAP
10
7C
54
FE
54
48
66
ENDCHAR
STARTCHAR uni4E28
ENCODING 20008
SWIDTH 1000 0
DWIDTH 8 0
BBX 1 7 3 0
BITMAP
80
80
80
80
80
80
80
ENDCHAR
STARTCHAR uni4E29
ENCODING 20009
SWIDTH 1000 0
DWIDTH 8 0
BBX 5 7 1 0
BITMAP
88
88
88
B8
C8
08
08
ENDCHAR
STARTCHAR uni4E2A
ENCODING 20010
SWIDTH 1000 0
DWIDTH 8 0
BBX 7 7 0 0
BITMAP
10
28
44
92
10
10
10
ENDCHAR
STARTCHAR uni4E2B
ENCODING 20011
SWIDTH 1000 0
DWIDTH 8 0
BBX 7 7 0 0
BITMAP
82
44
28
10
10
10
10
ENDCHAR
STARTCHAR uni4E2C
ENCODING 20012
SWIDTH 1000 0
DWIDTH 8 0
BBX 3 7 2 0
BITMAP
20
A0
60
20
60
A0
20
ENDCHAR
STARTCHAR uni4E2D
ENCODING 20013
SWIDTH 1000 0
DWIDTH 8 0
BBX 7 7 0 0
BITMAP
10
FE
92
92
FE
10
10
ENDCHAR
STARTCHAR uni4E2E
ENCODING 20014
SWIDTH 1000 0
DWIDTH 8 0
BBX 7 7 0 0
BITMAP
FC
24
FC
24
FC
24
22
ENDCHAR
STARTCHAR uni4E2F
ENCODING 20015
SWIDTH 1000 0
DWIDTH 8 0
BBX 7 7 0 0
BITMAP
10
1E
F0
1E
F0
1E
F0
ENDCHAR
STARTCHAR uni4E30
ENCODING 20016
SWIDTH 1000 0
DWIDTH 8 0
BBX 7 7 0 0
BITMAP
10
FE
10
7C
10
FE
10
ENDCHAR
STARTCHAR uni4E31
ENCODING 20017
SWIDTH 1000 0
DWIDTH 8 0
BBX 7 7 0 0
BITMAP
28
AA
AA
AA
EE
28
48
ENDCHAR
STARTCHAR uni4E32
ENCODING 20018
SWIDTH 1000 0
DWIDTH 8 0
BBX 7 7 0 0
BITMAP
10
7C
54
FE
92
FE
10
ENDCHAR
STARTCHAR uni4E33
ENCODING 20019
SWIDTH 1000 0
DWIDTH 8 0
BBX 7 7 0 0
BITMAP
28
FE
AA
FE
AA
FE
48
ENDCHAR
STARTCHAR uni4E34
ENCODING 20020
SWIDTH 1000 0
DWIDTH 8 0
BBX 7 7 0 0
BITMAP
28
BE
A8
A4
BE
AA
3E
ENDCHAR
STARTCHAR uni4E35
ENCODING 20021
SWIDTH 1000 0
DWIDTH 8 0
BBX 7 7 0 0
BITMAP
AA
6C
FE
92
54
FE
10
ENDCHAR
STARTCHAR uni4E36
ENCODING 20022
SWIDTH 1000 0
DWIDTH 8 0
BBX 3 3 2 2
BITMAP
80
40
20
ENDCHAR
STARTCHAR uni4E37
ENCODING 20023
SWIDTH 1000 0
DWIDTH 8 0
BBX 5 2 1 3
BITMAP
88
50
ENDCHAR
STARTCHAR uni4E38
ENCODING 20024
SWIDTH 1000 0
DWIDTH 8 0
BBX 7 7 0 0
BITMAP
20
F8
28
68
28
5A
86
ENDCHAR
STARTCHAR uni4E39
ENCODING 20025
SWIDTH 1000 0
DWIDTH 8 0
BBX 7 7 0 0
BITMAP
7C
44
54
44
FE
44
8C
ENDCHAR
STARTCHAR uni4E3A
ENCODING 20026
SWIDTH 1000 0
DWIDTH 8 0
BBX 7 7 0 0
BITMAP
90
50
FE
22
32
4A
86
ENDCHAR
STARTCHAR uni4E3B
ENCODING 20027
SWIDTH 1000 0
DWIDTH 8 0
BBX 7 7 0 0
BITMAP
20
10
FE
10
7C
10
FE
ENDCHAR
STARTCHAR uni4E3C
ENCODING 20028
SWIDTH 1000 0
DWIDTH 8 0
BBX 7 7 0 0
BITMAP
44
FE
44
54
44
FE
84
ENDCHAR
STARTCHAR uni4E3D
ENCODING 20029
SWIDTH 1000 0
DWIDTH 8 0
BBX 7 7 0 0
BITMAP
FE
00
EE
AA
EE
AA
AA
ENDCHAR
STARTCHAR uni4E3E
ENCODING 20030
SWIDTH 1000 0
DWIDTH 8 0
BBX 7 7 0 0
BITMAP
92
FE
54
BA
10
FE
10
ENDCHAR
STARTCHAR uni4E3F
ENCODING 20031
SWIDTH 1000 0
DWIDTH 8 0
BBX 3 7 2 0
BITMAP
20
20
20
20
40
40
80
ENDCHAR
STARTCHAR uni4E40
ENCODING 20032
SWIDTH 1000 0
DWIDTH 8 0
BBX 7 7 0 0
BITMAP
18
68
88
08
04
04
02
ENDCHAR
STARTCHAR uni4E41
ENCODING 20033
SWIDTH 1000 0
DWIDTH 8 0
BBX 7 7 0 0
BITMAP
F8
08
08
08
04
04
02
ENDCHAR
STARTCHAR uni4E42
ENCODING 20034
SWIDTH 1000 0
DWIDTH 8 0
BBX 7 7 0 0
BITMAP
44
44
28
28
10
28
C6
ENDCHAR
STARTCHAR uni4E43
ENCODING 20035
SWIDTH 1000 0
DWIDTH 8 0
BBX 7 7 0 0
BITMAP
FC
44
48
5E
42
42
86
ENDCHAR
STARTCHAR uni4E44
ENCODING 20036
SWIDTH 1000 0
DWIDTH 8 0
BBX 7 6 0 0
BITMAP
22
14
08
14
A2
40
ENDCHAR
STARTCHAR uni4E45
ENCODING 20037
SWIDTH 1000 0
DWIDTH 8 0
BBX 7 7 0 0
BITMAP
20
7E
84
08
10
28
C6
ENDCHAR
STARTCHAR uni4E46
ENCODING 20038
SWIDTH 1000 0
DWIDTH 8 0
BBX 7 7 0 0
BITMAP
90
90
B0
D0
28
44
82
ENDCHAR
STARTCHAR uni4E47
ENCODING 20039
SWIDTH 1000 0
DWIDTH 8 0
BBX 7 7 0 0
BITMAP
1C
70
10
1E
F0
12
0E
ENDCHAR
STARTCHAR uni4E48
ENCODING 20040
SWIDTH 1000 0
DWIDTH 8 0
BBX 7 7 0 0
BITMAP
24
48
90
20
44
82
FE
ENDCHAR
STARTCHAR uni4E49
ENCODING 20041
SWIDTH 1000 0
DWIDTH 8 0
BBX 7 7 0 0
BITMAP
54
44
28
28
10
28
C6
ENDCHAR
STARTCHAR uni4E4A
ENCODING 20042
SWIDTH 1000 0
DWIDTH 8 0
BBX 7 4 0 3
BITMAP
0E
F0
44
28
ENDCHAR
STARTCHAR uni4E4B
ENCODING 20043
SWIDTH 1000 0
DWIDTH 8 0
BBX 7 7 0 0
BITMAP
20
10
FE
0C
30
40
BE
ENDCHAR
STARTCHAR uni4E4C
ENCODING 20044
SWIDTH 1000 0
DWIDTH 8 0
BBX 7 7 0 0
BITMAP
20
7C
44
7E
02
FA
06
ENDCHAR
STARTCHAR uni4E4D
ENCODING 20045
SWIDTH 1000 0
DWIDTH 8 0
BBX 7 7 0 0
BITMAP
20
7E
A0
3C
20
3C
20
ENDCHAR
STARTCHAR uni4E4E
ENCODING 20046
SWIDTH 1000 0
DWIDTH 8 0
BBX 7 7 0 0
BITMAP
7C
92
54
FE
10
10
30
ENDCHAR
STARTCHAR uni4E4F
ENCODING 20047
SWIDTH 1000 0
DWIDTH 8 0
BBX 7 7 0 0
BITMAP
FE
10
FE
0C
30
40
BE
ENDCHAR
STARTCHAR uni4E50
ENCODING 20048
SWIDTH 1000 0
DWIDTH 8 0
BBX 7 7 0 0
BITMAP
FE
80
90
FE
10
54
B2
ENDCHAR
STARTCHAR uni4E51
ENCODING 20049
SWIDTH 1000 0
DWIDTH 8 0
BBX 7 7 0 0
BITMAP
FE
10
3A
54
B4
52
92
ENDCHAR
STARTCHAR uni4E52
ENCODING 20050
SWIDTH 1000 0
DWIDTH 8 0
BBX 7 7 0 0
BITMAP
7C
40
7C
48
FE
40
80
ENDCHAR
STARTCHAR uni4E53
ENCODING 20051
SWIDTH 1000 0
DWIDTH 8 0
BBX 7 7 0 0
BITMAP
7C
40
7C
48
FE
04
02
ENDCHAR
STARTCHAR uni4E54
ENCODING 20052
SWIDTH 1000 0
DWIDTH 8 0
BBX 7 7 0 0
BITMAP
7C
10
FE
44
AA
28
48
ENDCHAR
STARTCHAR uni4E55
ENCODING 20053
SWIDTH 1000 0
DWIDTH 8 0
BBX 7 7 0 0
BITMAP
7E
48
7E
48
7E
6A
AA
ENDCHAR
STARTCHAR uni4E56
ENCODING 20054
SWIDTH 1000 0
DWIDTH 8 0
BBX 7 7 0 0
BITMAP
7C
10
FE
10
D6
54
D2
ENDCHAR
STARTCHAR uni4E57
ENCODING 20055
SWIDTH 1000 0
DWIDTH 8 0
BBX 7 7 0 0
BITMAP
7C
54
FE
54
D6
38
D6
ENDCHAR
STARTCHAR uni4E58
ENCODING 20056
SWIDTH 1000 0
DWIDTH 8 0
BBX 7 7 0 0
BITMAP
7C
10
FE
54
D6
38
D6
ENDCHAR
STARTCHAR uni4E59
ENCODING 20057
SWIDTH 1000 0
DWIDTH 8 0
BBX 7 7 0 0
BITMAP
FE
06
18
60
80
82
7E
ENDCHAR
STARTCHAR uni4E5A
ENCODING 20058
SWIDTH 1000 0
DWIDTH 8 0
BBX 5 7 1 0
BITMAP
80
80
80
80
80
88
78
ENDCHAR
STARTCHAR uni4E5B
ENCODING 20059
SWIDTH 1000 0
DWIDTH 8 0
BBX 7 3 0 3
BITMAP
FE
04
08
ENDCHAR
STARTCHAR uni4E5C
ENCODING 20060
SWIDTH 1000 0
DWIDTH 8 0
BBX 7 7 0 0
BITMAP
40
5C
E4
44
4C
42
3E
ENDCHAR
STARTCHAR uni4E5D
ENCODING 20061
SWIDTH 1000 0
DWIDTH 8 0
BBX 7 7 0 0
BITMAP
20
F8
28
28
48
4A
86
ENDCHAR
STARTCHAR uni4E5E
ENCODING 20062
SWIDTH 1000 0
DWIDTH 8 0
BBX 7 7 0 0
BITMAP
7E
80
FE
0C
70
82
7E
ENDCHAR
STARTCHAR uni4E5F
ENCODING 20063
SWIDTH 1000 0
DWIDTH 8 0
BBX 7 7 0 0
BITMAP
50
5C
F4
54
4C
42
3E
ENDCHAR
STARTCHAR uni4E60
ENCODING 20064
SWIDTH 1000 0
DWIDTH 8 0
BBX 7 7 0 0
BITMAP
FE
02
62
12
1E
E2
06
ENDCHAR
STARTCHAR uni4E61
ENCODING 20065
SWIDTH 1000 0
DWIDTH 8 0
BBX 7 7 0 0
BITMAP
20
44
F8
22
FC
18
E0
ENDCHAR
STARTCHAR uni4E62
ENCODING 20066
SWIDTH 1000 0
DWIDTH 8 0
BBX 7 7 0 0
BITMAP
48
48
A8
A8
A8
AA
E6
ENDCHAR
STARTCHAR uni4E63
ENCODING 20067
SWIDTH 1000 0
DWIDTH 8 0
BBX 7 7 0 0
BITMAP
28
48
88
E8
48
AA
E6
ENDCHAR
STARTCHAR uni4E64
ENCODING 20068
SWIDTH 1000 0
DWIDTH 8 0
BBX 7 7 0 0
BITMAP
FE
14
FA
0C
70
82
7E
ENDCHAR
STARTCHAR uni4E65
ENCODING 20069
SWIDTH 1000 0
DWIDTH 8 0
BBX 7 7 0 0
BITMAP
FE
44
BA
0C
70
82
7E
ENDCHAR
STARTCHAR uni4E66
ENCODING 20070
SWIDTH 1000 0
DWIDTH 8 0
BBX 7 7 0 0
BITMAP
12
7C
14
FE
12
16
10
ENDCHAR
STARTCHAR uni4E67
ENCODING 20071
SWIDTH 1000 0
DWIDTH 8 0
BBX 7 7 0 0
BITMAP
48
28
FE
0C
70
82
7E
ENDCHAR
STARTCHAR uni4E68
ENCODING 20072
SWIDTH 1000 0
DWIDTH 8 0
BBX 7 7 0 0
BITMAP
48
A8
E8
08
E8
AA
E6
ENDCHAR
STARTCHAR uni4E69
ENCODING 20073
SWIDTH 1000 0
DWIDTH 8 0
BBX 7 7 0 0
BITMAP
48
68
48
E8
A8
AA
E6
ENDCHAR
STARTCHAR uni4E6A
ENCODING 20074
SWIDTH 1000 0
DWIDTH 8 0
BBX 7 7 0 0
BITMAP
EE
2A
4E
4A
8E
80
7E
ENDCHAR
STARTCHAR uni4E6B
ENCODING 20075
SWIDTH 1000 0
DWIDTH 8 0
BBX 7 7 0 0
BITMAP
4E
EA
AA
AE
70
82
7E
ENDCHAR
STARTCHAR uni4E6C
ENCODING 20076
SWIDTH 1000 0
DWIDTH 8 0
BBX 7 7 0 0
BITMAP
FE
88
FE
0C
70
82
7E
ENDCHAR
STARTCHAR uni4E6D
ENCODING 20077
SWIDTH 1000 0
DWIDTH 8 0
BBX 7 7 0 0
BITMAP
FE
54
B6
1C
70
82
7E
ENDCHAR
STARTCHAR uni4E70
ENCODING 20080
SWIDTH 1000 0
DWIDTH 8 0
BBX 7 7 0 0
BITMAP
FE
02
48
28
FE
24
C2
ENDCHAR
STARTCHAR uni4E71
ENCODING 20081
SWIDTH 1000 0
DWIDTH 8 0
BBX 7 7 0 0
BITMAP
E8
48
E8
48
E8
AA
E6
ENDCHAR
STARTCHAR uni4E73
ENCODING 20083
SWIDTH 1000 0
DWIDTH 8 0
BBX 7 7 0 0
BITMAP
E8
08
E8
28
48
EA
46
ENDCHAR
STARTCHAR uni4E7E
ENCODING 20094
SWIDTH 1000 0
DWIDTH 8 0
BBX 7 7 0 0
BITMAP
48
EE
50
BE
4C
F0
4E
ENDCHAR
STARTCHAR uni4E85
ENCODING 20101
SWIDTH 1000 0
DWIDTH 8 0
BBX 2 7 2 0
BITMAP
40
40
40
40
40
40
C0
ENDCHAR
STARTCHAR uni4E86
ENCODING 20102
SWIDTH 1000 0
DWIDTH 8 0
BBX 7 7 0 0
BITMAP
FE
04
08
10
10
10
30
ENDCHAR
STARTCHAR uni4E87
ENCODING 20103
SWIDTH 1000 0
DWIDTH 8 0
BBX 7 7 0 0
BITMAP
20
7E
82
10
10
10
30
ENDCHAR
STARTCHAR uni4E88
ENCODING 20104
SWIDTH 1000 0
DWIDTH 8 0
BBX 7 7 0 0
BITMAP
7C
28
10
FE
12
10
30
ENDCHAR
STARTCHAR uni4E89
ENCODING 20105
SWIDTH 1000 0
DWIDTH 8 0
BBX 7 7 0 0
BITMAP
7C
88
7C
96
7C
10
30
ENDCHAR
STARTCHAR uni4E8B
ENCODING 20107
SWIDTH 1000 0
DWIDTH 8 0
BBX 7 7 0 0
BITMAP
7C
28
7C
96
7C
10
30
ENDCHAR
STARTCHAR uni4E8C
ENCODING 20108
SWIDTH 1000 0
DWIDTH 8 0
BBX 7 5 0 1
BITMAP
7C
00
00
00
FE
ENDCHAR
STARTCHAR uni4E8D
ENCODING 20109
SWIDTH 1000 0
DWIDTH 8 0
BBX 7 7 0 0
BITMAP
7C
00
00
FE
10
10
30
ENDCHAR
STARTCHAR uni4E8E
ENCODING 20110
SWIDTH 1000 0
DWIDTH 8 0
BBX 7 7 0 0
BITMAP
7C
10
10
FE
10
10
30
ENDCHAR
STARTCHAR uni4E8F
ENCODING 20111
SWIDTH 1000 0
DWIDTH 8 0
BBX 7 7 0 0
BITMAP
7C
00
FE
20
7C
04
0C
ENDCHAR
STARTCHAR uni4E91
ENCODING 20113
SWIDTH 1000 0
DWIDTH 8 0
BBX 7 7 0 0
BITMAP
7C
00
00
FE
20
44
FE
ENDCHAR
STARTCHAR uni4E92
ENCODING 20114
SWIDTH 1000 0
DWIDTH 8 0
BBX 7 7 0 0
BITMAP
FE
20
3C
44
78
08
FE
ENDCHAR
STARTCHAR uni4E94
ENCODING 20116
SWIDTH 1000 0
DWIDTH 8 0
BBX 7 7 0 0
BITMAP
FE
10
10
7C
24
24
FE
ENDCHAR
STARTCHAR uni4E95
ENCODING 20117
SWIDTH 1000 0
DWIDTH 8 0
BBX 7 7 0 0
BITMAP
44
FE
44
44
FE
44
84
ENDCHAR
STARTCHAR uni4E96
ENCODING 20118
SWIDTH 1000 0
DWIDTH 8 0
BBX 7 7 0 0
BITMAP
7C
00
FE
00
7C
00
FE
ENDCHAR
STARTCHAR uni4E97
ENCODING 20119
SWIDTH 1000 0
DWIDTH 8 0
BBX 7 7 0 0
BITMAP
10
54
7C
00
7C
00
FE
ENDCHAR
STARTCHAR uni4E98
ENCODING 20120
SWIDTH 1000 0
DWIDTH 8 0
BBX 7 7 0 0
BITMAP
FE
7C
44
7C
44
7C
FE
ENDCHAR
STARTCHAR uni4E9A
ENCODING 20122
SWIDTH 1000 0
DWIDTH 8 0
BBX 7 7 0 0
BITMAP
FE
28
28
AA
6C
28
FE
ENDCHAR
STARTCHAR uni4E9B
ENCODING 20123
SWIDTH 1000 0
DWIDTH 8 0
BBX 7 7 0 0
BITMAP
2A
3C
A8
F6
7C
00
FE
ENDCHAR
STARTCHAR uni4E9C
ENCODING 20124
SWIDTH 1000 0
DWIDTH 8 0
BBX 7 7 0 0
BITMAP
FE
28
FE
AA
FE
28
FE
ENDCHAR
STARTCHAR uni4E9E
ENCODING 20126
SWIDTH 1000 0
DWIDTH 8 0
BBX 7 7 0 0
BITMAP
FE
28
EE
82
EE
28
FE
ENDCHAR
STARTCHAR uni4E9F
ENCODING 20127
SWIDTH 1000 0
DWIDTH 8 0
BBX 7 7 0 0
BITMAP
FE
04
FE
B4
FA
10
FE
ENDCHAR
STARTCHAR uni4EA0
ENCODING 20128
SWIDTH 1000 0
DWIDTH 8 0
BBX 7 3 0 3
BITMAP
20
10
FE
ENDCHAR
STARTCHAR uni4EA1
ENCODING 20129
SWIDTH 1000 0
DWIDTH 8 0
BBX 7 7 0 0
BITMAP
20
10
FE
40
40
40
7E
ENDCHAR
STARTCHAR uni4EA2
ENCODING 20130
SWIDTH 1000 0
DWIDTH 8 0
BBX 7 7 0 0
BITMAP
10
FE
00
38
28
2A
46
ENDCHAR
STARTCHAR uni4EA3
ENCODING 20131
SWIDTH 1000 0
DWIDTH 8 0
BBX 7 7 0 0
BITMAP
20
10
FE
44
44
44
84
ENDCHAR
STARTCHAR uni4EA4
ENCODING 20132
SWIDTH 1000 0
DWIDTH 8 0
BBX 7 7 0 0
BITMAP
10
FE
44
AA
10
28
C6
ENDCHAR
STARTCHAR uni4EA5
ENCODING 20133
SWIDTH 1000 0
DWIDTH 8 0
BBX 7 7 0 0
BITMAP
10
FE
44
3A
E4
18
E6
ENDCHAR
STARTCHAR uni4EA6
ENCODING 20134
SWIDTH 1000 0
DWIDTH 8 0
BBX 7 7 0 0
BITMAP
10
FE
28
6C
AA
28
58
ENDCHAR
STARTCHAR uni4EA7
ENCODING 20135
SWIDTH 1000 0
DWIDTH 8 0
BBX 7 7 0 0
BITMAP
10
7C
28
7E
40
40
80
ENDCHAR
STARTCHAR uni4EA8
ENCODING 20136
SWIDTH 1000 0
DWIDTH 8 0
BBX 7 7 0 0
BITMAP
10
FE
28
7C
08
10
30
ENDCHAR
STARTCHAR uni4EA9
ENCODING 20137
SWIDTH 1000 0
DWIDTH 8 0
BBX 7 7 0 0
BITMAP
10
FE
00
FE
B6
DA
FE
ENDCHAR
STARTCHAR uni4EAB
ENCODING 20139
SWIDTH 1000 0
DWIDTH 8 0
BBX 7 7 0 0
BITMAP
10
FE
28
7C
08
FE
10
ENDCHAR
STARTCHAR uni4EAC
ENCODING 20140
SWIDTH 1000 0
DWIDTH 8 0
BBX 7 7 0 0
BITMAP
10
FE
44
7C
10
54
B2
ENDCHAR
STARTCHAR uni4EAD
ENCODING 20141
SWIDTH 1000 0
DWIDTH 8 0
BBX 7 7 0 0
BITMAP
10
FE
44
FE
82
7C
10
ENDCHAR
STARTCHAR uni4EAE
ENCODING 20142
SWIDTH 1000 0
DWIDTH 8 0
BBX 7 7 0 0
BITMAP
10
FE
44
FE
AA
28
C6
ENDCHAR
STARTCHAR uni4EB2
ENCODING 20146
SWIDTH 1000 0
DWIDTH 8 0
BBX 7 7 0 0
BITMAP
10
7C
28
FE
10
FE
54
ENDCHAR
STARTCHAR uni4EBA
ENCODING 20154
SWIDTH 1000 0
DWIDTH 8 0
BBX 7 7 0 0
BITMAP
10
10
10
28
28
44
82
ENDCHAR
STARTCHAR uni4EBB
ENCODING 20155
SWIDTH 1000 0
DWIDTH 8 0
BBX 5 7 1 0
BITMAP
08
30
E0
20
20
20
20
ENDCHAR
STARTCHAR uni4EBC
ENCODING 20156
SWIDTH 1000 0
DWIDTH 8 0
BBX 7 5 0 2
BITMAP
10
28
C6
00
7C
ENDCHAR
STARTCHAR uni4EBD
ENCODING 20157
SWIDTH 1000 0
DWIDTH 8 0
BBX 7 7 0 0
BITMAP
10
28
C6
00
20
10
08
ENDCHAR
STARTCHAR uni4EBF
ENCODING 20159
SWIDTH 1000 0
DWIDTH 8 0
BBX 7 7 0 0
BITMAP
3E
42
C4
48
50
52
4E
ENDCHAR
STARTCHAR uni4EC0
ENCODING 20160
SWIDTH 1000 0
DWIDTH 8 0
BBX 7 7 0 0
BITMAP
28
48
C8
7E
48
48
48
ENDCHAR
STARTCHAR uni4EC1
ENCODING 20161
SWIDTH 1000 0
DWIDTH 8 0
BBX 7 7 0 0
BITMAP
20
40
DC
40
40
7E
40
ENDCHAR
STARTCHAR uni4EC3
ENCODING 20163
SWIDTH 1000 0
DWIDTH 8 0
BBX 7 7 0 0
BITMAP
3E
44
C4
44
44
44
4C
ENDCHAR
STARTCHAR uni4EC4
ENCODING 20164
SWIDTH 1000 0
DWIDTH 8 0
BBX 7 7 0 0
BITMAP
7E
40
48
48
54
40
80
ENDCHAR
STARTCHAR uni4EC6
ENCODING 20166
SWIDTH 1000 0
DWIDTH 8 0
BBX 7 7 0 0
BITMAP
28
48
C8
4C
4A
48
48
ENDCHAR
STARTCHAR uni4EC7
ENCODING 20167
SWIDTH 1000 0
DWIDTH 8 0
BBX 7 7 0 0
BITMAP
30
50
FC
54
54
54
62
ENDCHAR
STARTCHAR uni4EC8
ENCODING 20168
SWIDTH 1000 0
DWIDTH 8 0
BBX 7 7 0 0
BITMAP
28
44
D4
54
54
54
72
ENDCHAR
STARTCHAR uni4EC9
ENCODING 20169
SWIDTH 1000 0
DWIDTH 8 0
BBX 8 7 0 0
BITMAP
2C
52
D2
52
52
53
62
ENDCHAR
STARTCHAR uni4ECA
ENCODING 20170
SWIDTH 1000 0
DWIDTH 8 0
BBX 7 7 0 0
BITMAP
10
28
C6
10
7C
08
10
ENDCHAR
STARTCHAR uni4ECB
ENCODING 20171
SWIDTH 1000 0
DWIDTH 8 0
BBX 7 7 0 0
BITMAP
10
28
C6
28
28
28
48
ENDCHAR
STARTCHAR uni4ECD
ENCODING 20173
SWIDTH 1000 0
DWIDTH 8 0
BBX 7 7 0 0
BITMAP
3E
54
D4
56
52
52
66
ENDCHAR
STARTCHAR uni4ECE
ENCODING 20174
SWIDTH 1000 0
DWIDTH 8 0
BBX 7 7 0 0
BITMAP
28
28
28
28
54
54
A2
ENDCHAR
STARTCHAR uni4ED0
ENCODING 20176
SWIDTH 1000 0
DWIDTH 8 0
BBX 7 7 0 0
BITMAP
10
28
C6
10
7C
10
10
ENDCHAR
STARTCHAR uni4ED1
ENCODING 20177
SWIDTH 1000 0
DWIDTH 8 0
BBX 7 7 0 0
BITMAP
10
28
C6
48
70
44
3C
ENDCHAR
STARTCHAR uni4ED3
ENCODING 20179
SWIDTH 1000 0
DWIDTH 8 0
BBX 7 7 0 0
BITMAP
10
28
FE
44
4C
40
3C
ENDCHAR
STARTCHAR uni4ED4
ENCODING 20180
SWIDTH 1000 0
DWIDTH 8 0
BBX 7 7 0 0
BITMAP
3E
44
C8
7E
48
48
58
ENDCHAR
STARTCHAR uni4ED5
ENCODING 20181
SWIDTH 1000 0
DWIDTH 8 0
BBX 7 7 0 0
BITMAP
28
48
C8
7E
48
48
5C
ENDCHAR
STARTCHAR uni4ED6
ENCODING 20182
SWIDTH 1000 0
DWIDTH 8 0
BBX 7 7 0 0
BITMAP
34
54
FE
52
56
50
4E
ENDCHAR
STARTCHAR uni4ED7
ENCODING 20183
SWIDTH 1000 0
DWIDTH 8 0
BBX 7 7 0 0
BITMAP
24
44
FE
44
54
48
56
ENDCHAR
STARTCHAR uni4ED8
ENCODING 20184
SWIDTH 1000 0
DWIDTH 8 0
BBX 7 7 0 0
BITMAP
24
44
FE
44
54
44
4C
ENDCHAR
STARTCHAR uni4ED9
ENCODING 20185
SWIDTH 1000 0
DWIDTH 8 0
BBX 7 7 0 0
BITMAP
48
88
AA
AA
AA
AA
BE
ENDCHAR
STARTCHAR uni4EDB
ENCODING 20187
SWIDTH 1000 0
DWIDTH 8 0
BBX 7 7 0 0
BITMAP
26
58
C8
7E
48
4A
46
ENDCHAR
STARTCHAR uni4EDC
ENCODING 20188
SWIDTH 1000 0
DWIDTH 8 0
BBX 7 7 0 0
BITMAP
20
5E
C8
48
48
48
5E
ENDCHAR
STARTCHAR uni4EDE
ENCODING 20190
SWIDTH 1000 0
DWIDTH 8 0
BBX 7 7 0 0
BITMAP
3E
4A
DA
5A
6A
4A
56
ENDCHAR
STARTCHAR uni4EDF
ENCODING 20191
SWIDTH 1000 0
DWIDTH 8 0
BBX 7 7 0 0
BITMAP
26
58
C8
7E
48
48
48
ENDCHAR
STARTCHAR uni4EE0
ENCODING 20192
SWIDTH 1000 0
DWIDTH 8 0
BBX 7 7 0 0
BITMAP
3E
48
C8
7E
48
48
48
ENDCHAR
STARTCHAR uni4EE3
ENCODING 20195
SWIDTH 1000 0
DWIDTH 8 0
BBX 7 7 0 0
BITMAP
2A
48
FE
48
48
4A
46
ENDCHAR
STARTCHAR uni4EE4
ENCODING 20196
SWIDTH 1000 0
DWIDTH 8 0
BBX 7 7 0 0
BITMAP
10
28
D6
7C
04
28
10
ENDCHAR
STARTCHAR uni4EE5
ENCODING 20197
SWIDTH 1000 0
DWIDTH 8 0
BBX 7 7 0 0
BITMAP
88
C8
A8
88
B4
D4
A2
ENDCHAR
STARTCHAR uni4EE6
ENCODING 20198
SWIDTH 1000 0
DWIDTH 8 0
BBX 7 7 0 0
BITMAP
28
48
C8
5C
4A
58
48
ENDCHAR
STARTCHAR uni4EEA
ENCODING 20202
SWIDTH 1000 0
DWIDTH 8 0
BBX 7 7 0 0
BITMAP
22
6A
E2
54
48
54
62
ENDCHAR
STARTCHAR uni4EEC
ENCODING 20204
SWIDTH 1000 0
DWIDTH 8 0
BBX 7 7 0 0
BITMAP
36
42
D2
52
52
52
56
ENDCHAR
STARTCHAR uni4EEE
ENCODING 20206
SWIDTH 1000 0
DWIDTH 8 0
BBX 7 7 0 0
BITMAP
3E
50
DE
52
5A
54
6A
ENDCHAR
STARTCHAR uni4EF0
ENCODING 20208
SWIDTH 1000 0
DWIDTH 8 0
BBX 7 7 0 0
BITMAP
7E
AA
AA
AA
BE
A8
88
ENDCHAR
STARTCHAR uni4EF2
ENCODING 20210
SWIDTH 1000 0
DWIDTH 8 0
BBX 7 7 0 0
BITMAP
28
48
FE
6A
7E
48
48
ENDCHAR
STARTCHAR uni4EF6
ENCODING 20214
SWIDTH 1000 0
DWIDTH 8 0
BBX 7 7 0 0
BITMAP
28
7E
C8
7E
48
48
48
ENDCHAR
STARTCHAR uni4EF7
ENCODING 20215
SWIDTH 1000 0
DWIDTH 8 0
BBX 7 7 0 0
BITMAP
28
54
E2
54
54
54
64
ENDCHAR
STARTCHAR uni4EFB
ENCODING 20219
SWIDTH 1000 0
DWIDTH 8 0
BBX 7 7 0 0
BITMAP
3C
48
C8
7E
48
48
7E
ENDCHAR
STARTCHAR uni4EFC
ENCODING 20220
SWIDTH 1000 0
DWIDTH 8 0
BBX 7 7 0 0
BITMAP
3E
48
C8
5C
48
48
7E
ENDCHAR
STARTCHAR uni4EFD
ENCODING 20221
SWIDTH 1000 0
DWIDTH 8 0
BBX 7 7 0 0
BITMAP
54
E2
40
7E
4A
4A
76
ENDCHAR
STARTCHAR uni4EFF
ENCODING 20223
SWIDTH 1000 0
DWIDTH 8 0
BBX 7 7 0 0
BITMAP
28
7E
D0
5E
52
52
66
ENDCHAR
STARTCHAR uni4F01
ENCODING 20225
SWIDTH 1000 0
DWIDTH 8 0
BBX 7 7 0 0
BITMAP
10
28
C6
10
5C
50
FE
ENDCHAR
STARTCHAR uni4F0A
ENCODING 20234
SWIDTH 1000 0
DWIDTH 8 0
BBX 7 7 0 0
BITMAP
3C
54
FE
54
7C
50
60
ENDCHAR
STARTCHAR uni4F0D
ENCODING 20237
SWIDTH 1000 0
DWIDTH 8 0
BBX 7 7 0 0
BITMAP
3E
48
C8
5E
4A
4A
7E
ENDCHAR
STARTCHAR uni4F0E
ENCODING 20238
SWIDTH 1000 0
DWIDTH 8 0
BBX 7 7 0 0
BITMAP
28
7E
C8
7E
54
48
76
ENDCHAR
STARTCHAR uni4F0F
ENCODING 20239
SWIDTH 1000 0
DWIDTH 8 0
BBX 7 7 0 0
BITMAP
2A
48
FE
48
54
54
62
ENDCHAR
STARTCHAR uni4F10
ENCODING 20240
SWIDTH 1000 0
DWIDTH 8 0
BBX 7 7 0 0
BITMAP
2A
48
FE
4A
4C
5A
66
ENDCHAR
STARTCHAR uni4F17
ENCODING 20247
SWIDTH 1000 0
DWIDTH 8 0
BBX 7 7 0 0
BITMAP
10
28
C6
28
28
54
A2
ENDCHAR
STARTCHAR uni4F18
ENCODING 20248
SWIDTH 1000 0
DWIDTH 8 0
BBX 7 7 0 0
BITMAP
2A
48
FE
48
54
54
66
ENDCHAR
STARTCHAR uni4F19
ENCODING 20249
SWIDTH 1000 0
DWIDTH 8 0
BBX 7 7 0 0
BITMAP
28
6A
DC
48
54
54
62
ENDCHAR
STARTCHAR uni4F1A
ENCODING 20250
SWIDTH 1000 0
DWIDTH 8 0
BBX 7 7 0 0
BITMAP
38
44
BA
00
FE
44
FE
ENDCHAR
STARTCHAR uni4F1D
ENCODING 20253
SWIDTH 1000 0
DWIDTH 8 0
BBX 7 7 0 0
BITMAP
3C
40
FE
48
50
54
7E
ENDCHAR
STARTCHAR uni4F1E
ENCODING 20254
SWIDTH 1000 0
DWIDTH 8 0
BBX 7 7 0 0
BITMAP
10
28
D6
54
FE
10
10
ENDCHAR
STARTCHAR uni4F1F
ENCODING 20255
SWIDTH 1000 0
DWIDTH 8 0
BBX 7 7 0 0
BITMAP
28
7E
C8
7E
48
7E
4A
ENDCHAR
STARTCHAR uni4F20
ENCODING 20256
SWIDTH 1000 0
DWIDTH 8 0
BBX 7 7 0 0
BITMAP
28
7E
C8
7E
50
5E
44
ENDCHAR
STARTCHAR uni4F24
ENCODING 20260
SWIDTH 1000 0
DWIDTH 8 0
BBX 7 7 0 0
BITMAP
28
5E
E8
5E
4A
4A
56
ENDCHAR
STARTCHAR uni4F25
ENCODING 20261
SWIDTH 1000 0
DWIDTH 8 0
BBX 7 7 0 0
BITMAP
32
54
D8
7E
58
54
5A
ENDCHAR
STARTCHAR uni4F26
ENCODING 20262
SWIDTH 1000 0
DWIDTH 8 0
BBX 7 7 0 0
BITMAP
28
54
E2
54
58
52
4E
ENDCHAR
STARTCHAR uni4F2A
ENCODING 20266
SWIDTH 1000 0
DWIDTH 8 0
BBX 7 7 0 0
BITMAP
28
58
FE
4A
4E
4A
56
ENDCHAR
STARTCHAR uni4F2B
ENCODING 20267
SWIDTH 1000 0
DWIDTH 8 0
BBX 7 7 0 0
BITMAP
28
5E
D2
40
40
40
5E
ENDCHAR
STARTCHAR uni4F2F
ENCODING 20271
SWIDTH 1000 0
DWIDTH 8 0
BBX 7 7 0 0
BITMAP
24
48
DE
52
5E
52
5E
ENDCHAR
STARTCHAR uni4F30
ENCODING 20272
SWIDTH 1000 0
DWIDTH 8 0
BBX 7 7 0 0
BITMAP
28
5E
C8
48
5E
52
5E
ENDCHAR
STARTCHAR uni4F34
ENCODING 20276
SWIDTH 1000 0
DWIDTH 8 0
BBX 7 7 0 0
BITMAP
2A
5C
FE
48
7E
48
48
ENDCHAR
STARTCHAR uni4F38
ENCODING 20280
SWIDTH 1000 0
DWIDTH 8 0
BBX 7 7 0 0
BITMAP
48
BE
AA
BE
AA
BE
88
ENDCHAR
STARTCHAR uni4F39
ENCODING 20281
SWIDTH 1000 0
DWIDTH 8 0
BBX 7 7 0 0
BITMAP
3C
54
DC
54
5C
54
5E
ENDCHAR
STARTCHAR uni4F3A
ENCODING 20282
SWIDTH 1000 0
DWIDTH 8 0
BBX 7 7 0 0
BITMAP
3E
42
DE
5E
52
5E
46
ENDCHAR
STARTCHAR uni4F3B
ENCODING 20283
SWIDTH 1000 0
DWIDTH 8 0
BBX 7 7 0 0
BITMAP
3E
48
DC
7E
48
48
48
ENDCHAR
STARTCHAR uni4F3C
ENCODING 20284
SWIDTH 1000 0
DWIDTH 8 0
BBX 7 7 0 0
BITMAP
34
54
DC
54
54
5A
52
ENDCHAR
STARTCHAR uni4F4D
ENCODING 20301
SWIDTH 1000 0
DWIDTH 8 0
BBX 7 7 0 0
BITMAP
28
7E
C0
54
54
48
7E
ENDCHAR
STARTCHAR uni4F4E
ENCODING 20302
SWIDTH 1000 0
DWIDTH 8 0
BBX 7 7 0 0
BITMAP
3E
54
D4
5E
54
54
5A
ENDCHAR
STARTCHAR uni4F4F
ENCODING 20303
SWIDTH 1000 0
DWIDTH 8 0
BBX 7 7 0 0
BITMAP
28
7E
C8
5C
48
48
7E
ENDCHAR
STARTCHAR uni4F50
ENCODING 20304
SWIDTH 1000 0
DWIDTH 8 0
BBX 7 7 0 0
BITMAP
28
48
FE
48
5E
54
6E
ENDCHAR
STARTCHAR uni4F51
ENCODING 20305
SWIDTH 1000 0
DWIDTH 8 0
BBX 7 7 0 0
BITMAP
28
48
FE
50
5E
72
5E
ENDCHAR
STARTCHAR uni4F53
ENCODING 20307
SWIDTH 1000 0
DWIDTH 8 0
BBX 7 7 0 0
BITMAP
28
7E
C8
5C
6A
5C
48
ENDCHAR
STARTCHAR uni4F55
ENCODING 20309
SWIDTH 1000 0
DWIDTH 8 0
BBX 7 7 0 0
BITMAP
3E
42
DE
56
5E
42
46
ENDCHAR
STARTCHAR uni4F57
ENCODING 20311
SWIDTH 1000 0
DWIDTH 8 0
BBX 7 7 0 0
BITMAP
28
5E
D2
56
58
52
4E
ENDCHAR
STARTCHAR uni4F58
ENCODING 20312
SWIDTH 1000 0
DWIDTH 8 0
BBX 7 7 0 0
BITMAP
38
44
BA
00
7C
54
B2
ENDCHAR
STARTCHAR uni4F59
ENCODING 20313
SWIDTH 1000 0
DWIDTH 8 0
BBX 7 7 0 0
BITMAP
38
44
BA
10
FE
54
B2
ENDCHAR
STARTCHAR uni4F5A
ENCODING 20314
SWIDTH 1000 0
DWIDTH 8 0
BBX 7 7 0 0
BITMAP
28
5C
E8
7E
48
54
62
ENDCHAR
STARTCHAR uni4F5B
ENCODING 20315
SWIDTH 1000 0
DWIDTH 8 0
BBX 7 7 0 0
BITMAP
34
5E
D4
7E
54
5E
64
ENDCHAR
STARTCHAR uni4F5C
ENCODING 20316
SWIDTH 1000 0
DWIDTH 8 0
BBX 7 7 0 0
BITMAP
28
5E
E8
4E
48
4E
48
ENDCHAR
STARTCHAR uni4F5D
ENCODING 20317
SWIDTH 1000 0
DWIDTH 8 0
BBX 7 7 0 0
BITMAP
28
5E
E2
5E
52
5E
46
ENDCHAR
STARTCHAR uni4F5F
ENCODING 20319
SWIDTH 1000 0
DWIDTH 8 0
BBX 7 7 0 0
BITMAP
3E
54
C8
76
4C
58
44
ENDCHAR
STARTCHAR uni4F60
ENCODING 20320
SWIDTH 1000 0
DWIDTH 8 0
BBX 7 7 0 0
BITMAP
28
5E
EA
48
5C
6A
58
ENDCHAR
STARTCHAR uni4F63
ENCODING 20323
SWIDTH 1000 0
DWIDTH 8 0
BBX 7 7 0 0
BITMAP
7E
AA
BE
AA
BE
AA
CA
ENDCHAR
STARTCHAR uni4F69
ENCODING 20329
SWIDTH 1000 0
DWIDTH 8 0
BBX 7 7 0 0
BITMAP
7C
A4
BC
B4
AC
BC
D2
ENDCHAR
STARTCHAR uni4F6C
ENCODING 20332
SWIDTH 1000 0
DWIDTH 8 0
BBX 7 7 0 0
BITMAP
2A
5C
C8
7E
56
78
4E
ENDCHAR
STARTCHAR uni4F6E
ENCODING 20334
SWIDTH 1000 0
DWIDTH 8 0
BBX 7 7 0 0
BITMAP
48
94
A2
9C
BE
A2
BE
ENDCHAR
STARTCHAR uni4F70
ENCODING 20336
SWIDTH 1000 0
DWIDTH 8 0
BBX 7 7 0 0
BITMAP
3E
48
DE
52
5E
52
5E
ENDCHAR
STARTCHAR uni4F73
ENCODING 20339
SWIDTH 1000 0
DWIDTH 8 0
BBX 7 7 0 0
BITMAP
28
5C
C8
7E
5C
48
7E
ENDCHAR
STARTCHAR uni5196
ENCODING 20886
SWIDTH 1000 0
DWIDTH 8 0
BBX 7 2 0 3
BITMAP
FE
82
ENDCHAR
STARTCHAR uni5197
ENCODING 20887
SWIDTH 1000 0
DWIDTH 8 0
BBX 7 7 0 0
BITMAP
FE
82
38
28
28
2C
48
ENDCHAR
STARTCHAR uni5198
ENCODING 20888
SWIDTH 1000 0
DWIDTH 8 0
BBX 7 7 0 0
BITMAP
10
FE
92
28
28
2A
4C
ENDCHAR
STARTCHAR uni5199
ENCODING 20889
SWIDTH 1000 0
DWIDTH 8 0
BBX 7 7 0 0
BITMAP
FE
92
38
20
1C
64
1C
ENDCHAR
STARTCHAR uni519A
ENCODING 20890
SWIDTH 1000 0
DWIDTH 8 0
BBX 7 6 0 0
BITMAP
FE
82
10
54
54
7C
ENDCHAR
STARTCHAR uni53EA
ENCODING 21482
SWIDTH 1000 0
DWIDTH 8 0
BBX 5 6 0 0
BITMAP
F8
88
F8
00
50
88
ENDCHAR
STARTCHAR uni53F0
ENCODING 21488
SWIDTH 1000 0
DWIDTH 8 0
BBX 5 7 1 0
BITMAP
20
48
F8
00
78
48
78
ENDCHAR
STARTCHAR uni541E
ENCODING 21534
SWIDTH 1000 0
DWIDTH 8 0
BBX 7 7 0 0
BITMAP
7C
10
FE
44
BA
44
7C
ENDCHAR
STARTCHAR uni6211
ENCODING 25105
SWIDTH 1000 0
DWIDTH 8 0
BBX 7 7 0 0
BITMAP
EA
48
FE
48
EA
44
CA
ENDCHAR
STARTCHAR uni73BB
ENCODING 29627
SWIDTH 1000 0
DWIDTH 8 0
BBX 7 7 0 0
BITMAP
E4
5E
54
FE
52
54
EA
ENDCHAR
STARTCHAR uni7483
ENCODING 29827
SWIDTH 1000 0
DWIDTH 8 0
BBX 7 7 0 0
BITMAP
C8
BE
94
FE
AA
BE
E2
ENDCHAR
STARTCHAR uni800C
ENCODING 32780
SWIDTH 1000 0
DWIDTH 8 0
BBX 7 7 0 0
BITMAP
FE
20
FE
AA
AA
AA
AE
ENDCHAR
STARTCHAR uni80FD
ENCODING 33021
SWIDTH 1000 0
DWIDTH 8 0
BBX 7 7 0 0
BITMAP
AE
E8
06
E8
AE
E8
A6
ENDCHAR
STARTCHAR uni8278
ENCODING 33400
SWIDTH 1000 0
DWIDTH 8 0
BBX 7 2 0 5
BITMAP
28
FE
ENDCHAR
STARTCHAR uni8279
ENCODING 33401
SWIDTH 1000 0
DWIDTH 8 0
BBX 7 3 0 4
BITMAP
28
FE
28
ENDCHAR
STARTCHAR uni827A
ENCODING 33402
SWIDTH 1000 0
DWIDTH 8 0
BBX 7 7 0 0
BITMAP
28
FE
00
7C
10
24
7C
ENDCHAR
STARTCHAR uni8282
ENCODING 33410
SWIDTH 1000 0
DWIDTH 8 0
BBX 7 7 0 0
BITMAP
28
FE
00
7C
14
14
10
ENDCHAR
STARTCHAR uni8EAB
ENCODING 36523
SWIDTH 1000 0
DWIDTH 8 0
BBX 7 7 0 0
BITMAP
20
7C
54
6C
FE
24
CC
ENDCHAR
STARTCHAR uni8EAC
ENCODING 36524
SWIDTH 1000 0
DWIDTH 8 0
BBX 7 7 0 0
BITMAP
80
EE
42
AE
EE
22
6E
ENDCHAR
STARTCHAR uni8FB6
ENCODING 36790
SWIDTH 1000 0
DWIDTH 8 0
BBX 7 7 0 0
BITMAP
80
40
00
C0
40
40
BE
ENDCHAR
STARTCHAR uni8FB7
ENCODING 36791
SWIDTH 1000 0
DWIDTH 8 0
BBX 7 7 0 0
BITMAP
80
40
00
DE
40
40
BE
ENDCHAR
STARTCHAR uni8FB8
ENCODING 36792
SWIDTH 1000 0
DWIDTH 8 0
BBX 7 7 0 0
BITMAP
9C
54
16
D2
52
40
BE
ENDCHAR
STARTCHAR uni8FB9
ENCODING 36793
SWIDTH 1000 0
DWIDTH 8 0
BBX 7 7 0 0
BITMAP
80
48
1E
CA
4A
52
BE
ENDCHAR
STARTCHAR uni8FBA
ENCODING 36794
SWIDTH 1000 0
DWIDTH 8 0
BBX 7 7 0 0
BITMAP
80
5E
0A
CA
52
46
BE
ENDCHAR
STARTCHAR uni8FBB
ENCODING 36795
SWIDTH 1000 0
DWIDTH 8 0
BBX 7 7 0 0
BITMAP
88
48
1C
C8
48
40
BE
ENDCHAR
STARTCHAR uni8FBC
ENCODING 36796
SWIDTH 1000 0
DWIDTH 8 0
BBX 7 7 0 0
BITMAP
80
4C
04
CC
52
40
BE
ENDCHAR
STARTCHAR uni8FBD
ENCODING 36797
SWIDTH 1000 0
DWIDTH 8 0
BBX 7 7 0 0
BITMAP
9E
44
08
C4
52
4C
BE
ENDCHAR
STARTCHAR uni8FBE
ENCODING 36798
SWIDTH 1000 0
DWIDTH 8 0
BBX 7 7 0 0
BITMAP
80
48
1C
C8
54
40
BE
ENDCHAR
STARTCHAR uni8FBF
ENCODING 36799
SWIDTH 1000 0
DWIDTH 8 0
BBX 7 7 0 0
BITMAP
88
48
0A
EA
7E
40
BE
ENDCHAR
STARTCHAR uni8FC0
ENCODING 36800
SWIDTH 1000 0
DWIDTH 8 0
BBX 7 7 0 0
BITMAP
80
5C
08
DC
48
48
BE
ENDCHAR
STARTCHAR uni8FC1
ENCODING 36801
SWIDTH 1000 0
DWIDTH 8 0
BBX 7 7 0 0
BITMAP
84
58
08
DC
48
48
BE
ENDCHAR
STARTCHAR uni8FC2
ENCODING 36802
SWIDTH 1000 0
DWIDTH 8 0
BBX 7 7 0 0
BITMAP
80
5C
08
DC
48
58
BE
ENDCHAR
STARTCHAR uni8FC3
ENCODING 36803
SWIDTH 1000 0
DWIDTH 8 0
BBX 7 7 0 0
BITMAP
9C
40
1E
C4
44
4C
BE
ENDCHAR
STARTCHAR uni8FC4
ENCODING 36804
SWIDTH 1000 0
DWIDTH 8 0
BBX 7 7 0 0
BITMAP
88
5E
00
DE
44
5E
BE
ENDCHAR
STARTCHAR uni8FC5
ENCODING 36805
SWIDTH 1000 0
DWIDTH 8 0
BBX 7 7 0 0
BITMAP
BC
44
14
FC
54
56
BE
ENDCHAR
STARTCHAR uni9149
ENCODING 37193
SWIDTH 1000 0
DWIDTH 8 0
BBX 7 6 0 0
BITMAP
FE
7C
AA
EE
BA
FE
ENDCHAR
STARTCHAR uni914B
ENCODING 37195
SWIDTH 1000 0
DWIDTH 8 0
BBX 7 7 0 0
BITMAP
44
FE
7C
AA
EE
BA
FE
ENDCHAR
STARTCHAR uni91D1
ENCODING 37329
SWIDTH 1000 0
DWIDTH 8 0
BBX 7 7 0 0
BITMAP
10
28
44
BA
10
38
7C
ENDCHAR
STARTCHAR uni9485
ENCODING 38021
SWIDTH 1000 0
DWIDTH 8 0
BBX 3 7 0 0
BITMAP
40
80
E0
40
E0
40
60
ENDCHAR
STARTCHAR uni9486
ENCODING 38022
SWIDTH 1000 0
DWIDTH 8 0
BBX 7 7 0 0
BITMAP
48
88
E8
48
E8
4A
6E
ENDCHAR
STARTCHAR uni9487
ENCODING 38023
SWIDTH 1000 0
DWIDTH 8 0
BBX 7 7 0 0
BITMAP
5E
82
E2
44
E8
52
7E
ENDCHAR
STARTCHAR uni9488
ENCODING 38024
SWIDTH 1000 0
DWIDTH 8 0
BBX 7 7 0 0
BITMAP
44
84
E4
4E
E4
44
64
ENDCHAR
STARTCHAR uni9489
ENCODING 38025
SWIDTH 1000 0
DWIDTH 8 0
BBX 7 7 0 0
BITMAP
40
8E
E4
44
E4
44
6C
ENDCHAR
STARTCHAR uni948A
ENCODING 38026
SWIDTH 1000 0
DWIDTH 8 0
BBX 7 7 0 0
BITMAP
42
82
EA
4A
EA
42
66
ENDCHAR
STARTCHAR uni948C
ENCODING 38028
SWIDTH 1000 0
DWIDTH 8 0
BBX 7 7 0 0
BITMAP
5E
84
E4
44
E4
44
6C
ENDCHAR
STARTCHAR uni948D
ENCODING 38029
SWIDTH 1000 0
DWIDTH 8 0
BBX 7 7 0 0
BITMAP
40
84
E4
4E
E4
44
6E
ENDCHAR
STARTCHAR uni948E
ENCODING 38030
SWIDTH 1000 0
DWIDTH 8 0
BBX 7 7 0 0
BITMAP
42
8C
E4
4E
E4
44
64
ENDCHAR
STARTCHAR uni9490
ENCODING 38032
SWIDTH 1000 0
DWIDTH 8 0
BBX 7 7 0 0
BITMAP
42
8C
E2
44
E8
42
6C
ENDCHAR
STARTCHAR uni9492
ENCODING 38034
SWIDTH 1000 0
DWIDTH 8 0
BBX 7 7 0 0
BITMAP
40
8E
EA
4E
EA
5A
60
ENDCHAR
STARTCHAR uni9493
ENCODING 38035
SWIDTH 1000 0
DWIDTH 8 0
BBX 7 7 0 0
BITMAP
44
88
EE
42
EA
42
6E
ENDCHAR
STARTCHAR uni9494
ENCODING 38036
SWIDTH 1000 0
DWIDTH 8 0
BBX 7 7 0 0
BITMAP
40
90
EE
52
F2
52
76
ENDCHAR
STARTCHAR uni949A
ENCODING 38042
SWIDTH 1000 0
DWIDTH 8 0
BBX 7 7 0 0
BITMAP
5E
84
EC
56
E4
44
64
ENDCHAR
STARTCHAR uni949B
ENCODING 38043
SWIDTH 1000 0
DWIDTH 8 0
BBX 7 7 0 0
BITMAP
44
9E
E4
44
EA
50
64
ENDCHAR
STARTCHAR uni949C
ENCODING 38044
SWIDTH 1000 0
DWIDTH 8 0
BBX 7 7 0 0
BITMAP
4E
88
EE
4A
EE
48
6E
ENDCHAR
STARTCHAR uni949D
ENCODING 38045
SWIDTH 1000 0
DWIDTH 8 0
BBX 7 7 0 0
BITMAP
48
9C
E8
4A
FE
48
6C
ENDCHAR
STARTCHAR uni949E
ENCODING 38046
SWIDTH 1000 0
DWIDTH 0 0
BBX 6 7 0 0
BITMAP
40
88
E8
5C
E8
44
78
ENDCHAR
STARTCHAR uni949F
ENCODING 38047
SWIDTH 1000 0
DWIDTH 8 0
BBX 7 7 0 0
BITMAP
44
84
EE
4A
EE
44
64
ENDCHAR
STARTCHAR uni94A0
ENCODING 38048
SWIDTH 1000 0
DWIDTH 8 0
BBX 7 7 0 0
BITMAP
44
84
E8
5E
FA
56
72
ENDCHAR
STARTCHAR uni94A1
ENCODING 38049
SWIDTH 1000 0
DWIDTH 8 0
BBX 7 7 0 0
BITMAP
40
8E
EA
4E
EE
44
6A
ENDCHAR
STARTCHAR uni94A2
ENCODING 38050
SWIDTH 1000 0
DWIDTH 8 0
BBX 7 7 0 0
BITMAP
5C
82
F6
4A
F6
42
66
ENDCHAR
STARTCHAR uni94A9
ENCODING 38057
SWIDTH 1000 0
DWIDTH 8 0
BBX 7 7 0 0
BITMAP
44
88
EE
52
FA
42
66
ENDCHAR
STARTCHAR uni95E8
ENCODING 38376
SWIDTH 1000 0
DWIDTH 8 0
BBX 7 7 0 0
BITMAP
BE
02
82
82
82
82
86
ENDCHAR
STARTCHAR uni95E9
ENCODING 38377
SWIDTH 1000 0
DWIDTH 8 0
BBX 7 7 0 0
BITMAP
BE
02
82
BA
82
82
86
ENDCHAR
STARTCHAR uni95EA
ENCODING 38378
SWIDTH 1000 0
DWIDTH 8 0
BBX 7 7 0 0
BITMAP
BE
02
92
92
AA
82
86
ENDCHAR
STARTCHAR uni95EB
ENCODING 38379
SWIDTH 1000 0
DWIDTH 8 0
BBX 7 7 0 0
BITMAP
BE
02
BA
82
BA
82
BE
ENDCHAR
STARTCHAR uni95EC
ENCODING 38380
SWIDTH 1000 0
DWIDTH 8 0
BBX 7 7 0 0
BITMAP
BE
02
BA
92
BA
92
96
ENDCHAR
STARTCHAR uni95ED
ENCODING 38381
SWIDTH 1000 0
DWIDTH 8 0
BBX 7 7 0 0
BITMAP
BE
02
8A
BA
9A
AA
86
ENDCHAR
STARTCHAR uni95EE
ENCODING 38382
SWIDTH 1000 0
DWIDTH 8 0
BBX 7 7 0 0
BITMAP
BE
02
BA
AA
BA
82
86
ENDCHAR
STARTCHAR uni95F0
ENCODING 38384
SWIDTH 1000 0
DWIDTH 8 0
BBX 7 7 0 0
BITMAP
BE
02
BA
92
BA
92
BE
ENDCHAR
STARTCHAR uni95F4
ENCODING 38388
SWIDTH 1000 0
DWIDTH 8 0
BBX 7 7 0 0
BITMAP
BE
02
BA
AA
BA
AA
BE
ENDCHAR
STARTCHAR uni9963
ENCODING 39267
SWIDTH 1000 0
DWIDTH 8 0
BBX 4 7 0 0
BITMAP
80
F0
60
40
40
60
40
ENDCHAR
STARTCHAR uni9964
ENCODING 39268
SWIDTH 1000 0
DWIDTH 8 0
BBX 7 7 0 0
BITMAP
80
FE
64
44
44
64
4C
ENDCHAR
STARTCHAR uni9A6C
ENCODING 39532
SWIDTH 1000 0
DWIDTH 8 0
BBX 5 7 1 0
BITMAP
F8
08
88
F8
08
E8
18
ENDCHAR
STARTCHAR uniFF01
ENCODING 65281
SWIDTH 1001 0
DWIDTH 8 0
BBX 1 7 2 0
BITMAP
80
80
80
80
80
00
80
ENDCHAR
STARTCHAR uniFF02
ENCODING 65282
SWIDTH 1001 0
DWIDTH 8 0
BBX 3 2 1 5
BITMAP
A0
A0
ENDCHAR
STARTCHAR uniFF03
ENCODING 65283
SWIDTH 1001 0
DWIDTH 8 0
BBX 5 7 0 0
BITMAP
28
28
F8
50
F8
A0
A0
ENDCHAR
STARTCHAR uniFF04
ENCODING 65284
SWIDTH 1001 0
DWIDTH 8 0
BBX 5 7 0 0
BITMAP
20
78
A0
70
28
F0
20
ENDCHAR
STARTCHAR uniFF05
ENCODING 65285
SWIDTH 1001 0
DWIDTH 8 0
BBX 5 7 0 0
BITMAP
40
A8
50
20
50
A8
10
ENDCHAR
STARTCHAR uniFF06
ENCODING 65286
SWIDTH 1001 0
DWIDTH 8 0
BBX 5 7 0 0
BITMAP
60
90
90
60
A8
90
68
ENDCHAR
STARTCHAR uniFF07
ENCODING 65287
SWIDTH 1001 0
DWIDTH 8 0
BBX 1 2 2 5
BITMAP
80
80
ENDCHAR
STARTCHAR uniFF08
ENCODING 65288
SWIDTH 1001 0
DWIDTH 8 0
BBX 3 7 1 0
BITMAP
20
40
80
80
80
40
20
ENDCHAR
STARTCHAR uniFF09
ENCODING 65289
SWIDTH 1001 0
DWIDTH 8 0
BBX 3 7 1 0
BITMAP
80
40
20
20
20
40
80
ENDCHAR
STARTCHAR uniFF0A
ENCODING 65290
SWIDTH 1001 0
DWIDTH 8 0
BBX 5 7 0 0
BITMAP
20
A8
70
20
70
A8
20
ENDCHAR
STARTCHAR uniFF0B
ENCODING 65291
SWIDTH 1001 0
DWIDTH 8 0
BBX 5 5 0 1
BITMAP
20
20
F8
20
20
ENDCHAR
STARTCHAR uniFF0C
ENCODING 65292
SWIDTH 1001 0
DWIDTH 8 0
BBX 2 3 1 -1
BITMAP
40
40
80
ENDCHAR
STARTCHAR uniFF0D
ENCODING 65293
SWIDTH 1001 0
DWIDTH 8 0
BBX 5 1 0 3
BITMAP
F8
ENDCHAR
STARTCHAR uniFF0E
ENCODING 65294
SWIDTH 1001 0
DWIDTH 8 0
BBX 1 1 2 1
BITMAP
80
ENDCHAR
STARTCHAR uniFF0F
ENCODING 65295
SWIDTH 1001 0
DWIDTH 8 0
BBX 3 7 1 0
BITMAP
20
20
40
40
40
80
80
ENDCHAR
STARTCHAR uniFF10
ENCODING 65296
SWIDTH 1001 0
DWIDTH 8 0
BBX 5 7 0 0
BITMAP
70
88
98
A8
C8
88
70
ENDCHAR
STARTCHAR uniFF11
ENCODING 65297
SWIDTH 1001 0
DWIDTH 8 0
BBX 5 7 0 0
BITMAP
20
60
A0
20
20
20
F8
ENDCHAR
STARTCHAR uniFF12
ENCODING 65298
SWIDTH 1001 0
DWIDTH 8 0
BBX 5 7 0 0
BITMAP
70
88
08
10
20
40
F8
ENDCHAR
STARTCHAR uniFF13
ENCODING 65299
SWIDTH 1001 0
DWIDTH 8 0
BBX 5 7 0 0
BITMAP
70
88
08
30
08
88
70
ENDCHAR
STARTCHAR uniFF14
ENCODING 65300
SWIDTH 1001 0
DWIDTH 8 0
BBX 5 7 0 0
BITMAP
10
30
50
90
F8
10
10
ENDCHAR
STARTCHAR uniFF15
ENCODING 65301
SWIDTH 1001 0
DWIDTH 8 0
BBX 5 7 0 0
BITMAP
F8
80
F0
08
08
88
70
ENDCHAR
STARTCHAR uniFF16
ENCODING 65302
SWIDTH 1001 0
DWIDTH 8 0
BBX 5 7 0 0
BITMAP
70
88
80
F0
88
88
70
ENDCHAR
STARTCHAR uniFF17
ENCODING 65303
SWIDTH 1001 0
DWIDTH 8 0
BBX 5 7 0 0
BITMAP
F8
08
10
10
20
20
20
ENDCHAR
STARTCHAR uniFF18
ENCODING 65304
SWIDTH 1001 0
DWIDTH 8 0
BBX 5 7 0 0
BITMAP
70
88
88
70
88
88
70
ENDCHAR
STARTCHAR uniFF19
ENCODING 65305
SWIDTH 1001 0
DWIDTH 8 0
BBX 5 7 0 0
BITMAP
70
88
88
78
08
88
70
ENDCHAR
STARTCHAR uniFF1A
ENCODING 65306
SWIDTH 1001 0
DWIDTH 8 0
BBX 1 3 2 1
BITMAP
80
00
80
ENDCHAR
STARTCHAR uniFF1B
ENCODING 65307
SWIDTH 1001 0
DWIDTH 8 0
BBX 2 5 1 -1
BITMAP
40
00
40
40
80
ENDCHAR
STARTCHAR uniFF1C
ENCODING 65308
SWIDTH 1001 0
DWIDTH 8 0
BBX 3 5 1 1
BITMAP
20
40
80
40
20
ENDCHAR
STARTCHAR uniFF1D
ENCODING 65309
SWIDTH 1001 0
DWIDTH 8 0
BBX 5 3 0 2
BITMAP
F8
00
F8
ENDCHAR
STARTCHAR uniFF1E
ENCODING 65310
SWIDTH 1001 0
DWIDTH 8 0
BBX 3 5 1 1
BITMAP
80
40
20
40
80
ENDCHAR
STARTCHAR uniFF1F
ENCODING 65311
SWIDTH 1001 0
DWIDTH 8 0
BBX 5 7 0 0
BITMAP
70
88
08
10
20
00
20
ENDCHAR
STARTCHAR uniFF20
ENCODING 65312
SWIDTH 1001 0
DWIDTH 8 0
BBX 5 7 0 0
BITMAP
70
88
B8
A8
B8
80
78
ENDCHAR
STARTCHAR uniFF21
ENCODING 65313
SWIDTH 1001 0
DWIDTH 8 0
BBX 5 7 0 0
BITMAP
20
50
50
88
F8
88
88
ENDCHAR
STARTCHAR uniFF22
ENCODING 65314
SWIDTH 1001 0
DWIDTH 8 0
BBX 5 7 0 0
BITMAP
F0
88
88
F0
88
88
F0
ENDCHAR
STARTCHAR uniFF23
ENCODING 65315
SWIDTH 1001 0
DWIDTH 8 0
BBX 5 7 0 0
BITMAP
70
88
80
80
80
88
70
ENDCHAR
STARTCHAR uniFF24
ENCODING 65316
SWIDTH 1001 0
DWIDTH 8 0
BBX 5 7 0 0
BITMAP
E0
90
88
88
88
90
E0
ENDCHAR
STARTCHAR uniFF25
ENCODING 65317
SWIDTH 1001 0
DWIDTH 8 0
BBX 5 7 0 0
BITMAP
F8
80
80
F0
80
80
F8
ENDCHAR
STARTCHAR uniFF26
ENCODING 65318
SWIDTH 1001 0
DWIDTH 8 0
BBX 5 7 0 0
BITMAP
F8
80
80
F0
80
80
80
ENDCHAR
STARTCHAR uniFF27
ENCODING 65319
SWIDTH 1001 0
DWIDTH 8 0
BBX 5 7 0 0
BITMAP
78
80
80
B8
88
88
78
ENDCHAR
STARTCHAR uniFF28
ENCODING 65320
SWIDTH 1001 0
DWIDTH 8 0
BBX 5 7 0 0
BITMAP
88
88
88
F8
88
88
88
ENDCHAR
STARTCHAR uniFF29
ENCODING 65321
SWIDTH 1001 0
DWIDTH 8 0
BBX 3 7 1 0
BITMAP
E0
40
40
40
40
40
E0
ENDCHAR
STARTCHAR uniFF2A
ENCODING 65322
SWIDTH 1001 0
DWIDTH 8 0
BBX 5 7 0 0
BITMAP
08
08
08
08
08
88
70
ENDCHAR
STARTCHAR uniFF2B
ENCODING 65323
SWIDTH 1001 0
DWIDTH 8 0
BBX 5 7 0 0
BITMAP
88
90
A0
C0
A0
90
88
ENDCHAR
STARTCHAR uniFF2C
ENCODING 65324
SWIDTH 1001 0
DWIDTH 8 0
BBX 5 7 0 0
BITMAP
80
80
80
80
80
80
F8
ENDCHAR
STARTCHAR uniFF2D
ENCODING 65325
SWIDTH 1001 0
DWIDTH 8 0
BBX 5 7 0 0
BITMAP
88
D8
A8
A8
88
88
88
ENDCHAR
STARTCHAR uniFF2E
ENCODING 65326
SWIDTH 1001 0
DWIDTH 8 0
BBX 5 7 0 0
BITMAP
88
88
C8
A8
98
88
88
ENDCHAR
STARTCHAR uniFF2F
ENCODING 65327
SWIDTH 1001 0
DWIDTH 8 0
BBX 5 7 0 0
BITMAP
70
88
88
88
88
88
70
ENDCHAR
STARTCHAR uniFF30
ENCODING 65328
SWIDTH 1001 0
DWIDTH 8 0
BBX 5 7 0 0
BITMAP
F0
88
88
F0
80
80
80
ENDCHAR
STARTCHAR uniFF31
ENCODING 65329
SWIDTH 1001 0
DWIDTH 8 0
BBX 5 8 0 -1
BITMAP
70
88
88
88
88
A8
70
18
ENDCHAR
STARTCHAR uniFF32
ENCODING 65330
SWIDTH 1001 0
DWIDTH 8 0
BBX 5 7 0 0
BITMAP
F0
88
88
F0
A0
90
88
ENDCHAR
STARTCHAR uniFF33
ENCODING 65331
SWIDTH 1001 0
DWIDTH 8 0
BBX 5 7 0 0
BITMAP
78
80
80
70
08
08
F0
ENDCHAR
STARTCHAR uniFF34
ENCODING 65332
SWIDTH 1001 0
DWIDTH 8 0
BBX 5 7 0 0
BITMAP
F8
20
20
20
20
20
20
ENDCHAR
STARTCHAR uniFF35
ENCODING 65333
SWIDTH 1001 0
DWIDTH 8 0
BBX 5 7 0 0
BITMAP
88
88
88
88
88
88
70
ENDCHAR
STARTCHAR uniFF36
ENCODING 65334
SWIDTH 1001 0
DWIDTH 8 0
BBX 5 7 0 0
BITMAP
88
88
50
50
50
20
20
ENDCHAR
STARTCHAR uniFF37
ENCODING 65335
SWIDTH 1001 0
DWIDTH 8 0
BBX 5 7 0 0
BITMAP
88
88
88
A8
A8
50
50
ENDCHAR
STARTCHAR uniFF38
ENCODING 65336
SWIDTH 1001 0
DWIDTH 8 0
BBX 5 7 0 0
BITMAP
88
50
50
20
50
50
88
ENDCHAR
STARTCHAR uniFF39
ENCODING 65337
SWIDTH 1001 0
DWIDTH 8 0
BBX 5 7 0 0
BITMAP
88
88
50
50
20
20
20
ENDCHAR
STARTCHAR uniFF3A
ENCODING 65338
SWIDTH 1001 0
DWIDTH 8 0
BBX 5 7 0 0
BITMAP
F8
08
10
20
40
80
F8
ENDCHAR
STARTCHAR uniFF3B
ENCODING 65339
SWIDTH 1001 0
DWIDTH 8 0
BBX 3 7 1 0
BITMAP
E0
80
80
80
80
80
E0
ENDCHAR
STARTCHAR uniFF3C
ENCODING 65340
SWIDTH 1001 0
DWIDTH 8 0
BBX 3 7 1 0
BITMAP
80
80
40
40
40
20
20
ENDCHAR
STARTCHAR uniFF3D
ENCODING 65341
SWIDTH 1001 0
DWIDTH 8 0
BBX 3 7 1 0
BITMAP
E0
20
20
20
20
20
E0
ENDCHAR
STARTCHAR uniFF3E
ENCODING 65342
SWIDTH 1001 0
DWIDTH 8 0
BBX 3 2 1 5
BITMAP
40
A0
ENDCHAR
STARTCHAR uniFF3F
ENCODING 65343
SWIDTH 1001 0
DWIDTH 8 0
BBX 5 1 0 -1
BITMAP
F8
ENDCHAR
STARTCHAR uniFF40
ENCODING 65344
SWIDTH 1001 0
DWIDTH 8 0
BBX 2 2 1 6
BITMAP
80
40
ENDCHAR
STARTCHAR uniFF41
ENCODING 65345
SWIDTH 1001 0
DWIDTH 8 0
BBX 5 5 0 0
BITMAP
70
08
78
88
78
ENDCHAR
STARTCHAR uniFF42
ENCODING 65346
SWIDTH 1001 0
DWIDTH 8 0
BBX 5 7 0 0
BITMAP
80
80
B0
C8
88
88
F0
ENDCHAR
STARTCHAR uniFF43
ENCODING 65347
SWIDTH 1001 0
DWIDTH 8 0
BBX 5 5 0 0
BITMAP
70
88
80
88
70
ENDCHAR
STARTCHAR uniFF44
ENCODING 65348
SWIDTH 1001 0
DWIDTH 8 0
BBX 5 7 0 0
BITMAP
08
08
68
98
88
98
68
ENDCHAR
STARTCHAR uniFF45
ENCODING 65349
SWIDTH 1001 0
DWIDTH 8 0
BBX 5 5 0 0
BITMAP
70
88
F8
80
70
ENDCHAR
STARTCHAR uniFF46
ENCODING 65350
SWIDTH 1001 0
DWIDTH 8 0
BBX 4 7 1 0
BITMAP
30
40
40
F0
40
40
40
ENDCHAR
STARTCHAR uniFF47
ENCODING 65351
SWIDTH 1001 0
DWIDTH 8 0
BBX 5 6 0 -1
BITMAP
70
88
88
78
08
70
ENDCHAR
STARTCHAR uniFF48
ENCODING 65352
SWIDTH 1001 0
DWIDTH 8 0
BBX 5 7 0 0
BITMAP
80
80
B0
C8
88
88
88
ENDCHAR
STARTCHAR uniFF49
ENCODING 65353
SWIDTH 1001 0
DWIDTH 8 0
BBX 3 7 1 0
BITMAP
40
00
C0
40
40
40
E0
ENDCHAR
STARTCHAR uniFF4A
ENCODING 65354
SWIDTH 1001 0
DWIDTH 8 0
BBX 2 8 1 -1
BITMAP
40
00
C0
40
40
40
40
80
ENDCHAR
STARTCHAR uniFF4B
ENCODING 65355
SWIDTH 1001 0
DWIDTH 8 0
BBX 4 7 0 0
BITMAP
80
80
90
A0
C0
A0
90
ENDCHAR
STARTCHAR uniFF4C
ENCODING 65356
SWIDTH 1001 0
DWIDTH 8 0
BBX 4 7 1 0
BITMAP
C0
40
40
40
40
50
60
ENDCHAR
STARTCHAR uniFF4D
ENCODING 65357
SWIDTH 1001 0
DWIDTH 8 0
BBX 5 5 0 0
BITMAP
D0
A8
A8
A8
A8
ENDCHAR
STARTCHAR uniFF4E
ENCODING 65358
SWIDTH 1001 0
DWIDTH 8 0
BBX 5 5 0 0
BITMAP
B0
C8
88
88
88
ENDCHAR
STARTCHAR uniFF4F
ENCODING 65359
SWIDTH 1001 0
DWIDTH 8 0
BBX 5 5 0 0
BITMAP
70
88
88
88
70
ENDCHAR
STARTCHAR uniFF50
ENCODING 65360
SWIDTH 1001 0
DWIDTH 8 0
BBX 5 6 0 -1
BITMAP
F0
88
88
F0
80
80
ENDCHAR
STARTCHAR uniFF51
ENCODING 65361
SWIDTH 1001 0
DWIDTH 8 0
BBX 5 6 0 -1
BITMAP
78
88
88
78
08
08
ENDCHAR
STARTCHAR uniFF52
ENCODING 65362
SWIDTH 1001 0
DWIDTH 8 0
BBX 5 5 0 0
BITMAP
B0
C8
80
80
80
ENDCHAR
STARTCHAR uniFF53
ENCODING 65363
SWIDTH 1001 0
DWIDTH 8 0
BBX 5 5 0 0
BITMAP
78
80
70
08
F0
ENDCHAR
STARTCHAR uniFF54
ENCODING 65364
SWIDTH 1001 0
DWIDTH 8 0
BBX 4 6 1 0
BITMAP
40
F0
40
40
40
30
ENDCHAR
STARTCHAR uniFF55
ENCODING 65365
SWIDTH 1001 0
DWIDTH 8 0
BBX 5 5 0 0
BITMAP
88
88
88
98
68
ENDCHAR
STARTCHAR uniFF56
ENCODING 65366
SWIDTH 1001 0
DWIDTH 8 0
BBX 5 5 0 0
BITMAP
88
88
50
50
20
ENDCHAR
STARTCHAR uniFF57
ENCODING 65367
SWIDTH 1001 0
DWIDTH 8 0
BBX 5 5 0 0
BITMAP
88
88
A8
A8
50
ENDCHAR
STARTCHAR uniFF58
ENCODING 65368
SWIDTH 1001 0
DWIDTH 8 0
BBX 5 5 0 0
BITMAP
88
50
20
50
88
ENDCHAR
STARTCHAR uniFF59
ENCODING 65369
SWIDTH 1001 0
DWIDTH 8 0
BBX 5 6 0 -1
BITMAP
88
88
50
50
20
C0
ENDCHAR
STARTCHAR uniFF5A
ENCODING 65370
SWIDTH 1001 0
DWIDTH 8 0
BBX 5 5 0 0
BITMAP
F8
10
20
40
F8
ENDCHAR
STARTCHAR uniFF5B
ENCODING 65371
SWIDTH 1001 0
DWIDTH 8 0
BBX 3 7 1 0
BITMAP
20
40
40
80
40
40
20
ENDCHAR
STARTCHAR uniFF5C
ENCODING 65372
SWIDTH 1001 0
DWIDTH 8 0
BBX 1 7 2 0
BITMAP
80
80
80
80
80
80
80
ENDCHAR
STARTCHAR uniFF5D
ENCODING 65373
SWIDTH 1001 0
DWIDTH 8 0
BBX 3 7 1 0
BITMAP
80
40
40
20
40
40
80
ENDCHAR
STARTCHAR uniFF5E
ENCODING 65374
SWIDTH 1001 0
DWIDTH 8 0
BBX 5 3 0 2
BITMAP
40
A8
10
ENDCHAR
STARTCHAR uniFF61
ENCODING 65377
SWIDTH 750 0
DWIDTH 6 0
BBX 3 3 0 0
BITMAP
E0
A0
E0
ENDCHAR
STARTCHAR uniFF62
ENCODING 65378
SWIDTH 750 0
DWIDTH 6 0
BBX 3 3 0 4
BITMAP
E0
80
80
ENDCHAR
STARTCHAR uniFFEF
ENCODING 65519
SWIDTH 1000 0
DWIDTH 8 0
BBX 7 7 0 0
BITMAP
7C
EE
82
D6
EE
92
7C
ENDCHAR
STARTCHAR uniFFFC
ENCODING 65532
SWIDTH 1000 0
DWIDTH 8 0
BBX 5 7 1 0
BITMAP
F0
A8
B8
88
88
88
F8
ENDCHAR
STARTCHAR uniFFFD
ENCODING 65533
SWIDTH 1000 0
DWIDTH 8 0
BBX 7 7 0 0
BITMAP
10
28
74
EE
7C
28
10
ENDCHAR
ENDFONT
